<svg width="23" height="23" viewBox="0 0 23 23" fill="none" xmlns="http://www.w3.org/2000/svg">
<path d="M10.6476 0.476929C11.1675 0.476929 11.6757 0.631105 12.108 0.919958C12.5403 1.20881 12.8773 1.61937 13.0762 2.09972C13.2752 2.58006 13.3273 3.10862 13.2258 3.61856C13.1244 4.12849 12.874 4.59689 12.5064 4.96453C12.1388 5.33218 11.6704 5.58254 11.1604 5.68397C10.6505 5.78541 10.1219 5.73335 9.64159 5.53438C9.16124 5.33542 8.75068 4.99848 8.46183 4.56618C8.17297 4.13388 8.0188 3.62563 8.0188 3.10571C8.01855 2.76042 8.08637 2.41847 8.21839 2.09942C8.35041 1.78037 8.54403 1.49047 8.78819 1.24632C9.03234 1.00216 9.32224 0.808536 9.64129 0.676517C9.96034 0.544499 10.3023 0.476676 10.6476 0.476929V0.476929Z" fill="#3987E5"/>
<path d="M8.92637 8.09078C8.56484 8.15493 8.23745 8.34432 8.0016 8.62573C7.76576 8.90714 7.63652 9.26261 7.63657 9.62978V9.62978C7.63652 9.83501 7.6769 10.0382 7.75542 10.2279C7.83393 10.4175 7.94904 10.5898 8.09416 10.7349C8.23927 10.88 8.41157 10.9951 8.60118 11.0736C8.7908 11.1521 8.99403 11.1925 9.19926 11.1925H9.35416V19.8487H8.51814C8.1635 19.8487 7.82338 19.9896 7.57262 20.2404C7.32185 20.4912 7.18097 20.8313 7.18097 21.1859V21.1859C7.18097 21.5406 7.32185 21.8807 7.57262 22.1314C7.82338 22.3822 8.1635 22.5231 8.51814 22.5231H14.4819C14.8365 22.5231 15.1766 22.3822 15.4274 22.1314C15.6782 21.8807 15.819 21.5406 15.819 21.1859V21.1859C15.819 20.8313 15.6782 20.4912 15.4274 20.2404C15.1766 19.9896 14.8365 19.8487 14.4819 19.8487H13.655V8.79866C13.655 8.59925 13.6108 8.40231 13.5255 8.22203C13.4403 8.04174 13.3162 7.88258 13.1621 7.75601C13.008 7.62943 12.8278 7.53858 12.6344 7.49C12.441 7.44142 12.2392 7.4363 12.0436 7.47503C10.6944 7.74215 8.97987 8.08137 8.92637 8.09078Z" fill="#3987E5"/>
</svg>
