<svg width="36" height="34" viewBox="0 0 36 34" fill="none" xmlns="http://www.w3.org/2000/svg">
<path d="M17.25 12.5C17.9404 12.5 18.5 11.9404 18.5 11.25C18.5 10.5596 17.9404 10 17.25 10C16.5596 10 16 10.5596 16 11.25C16 11.9404 16.5596 12.5 17.25 12.5Z" fill="#3987E5"/>
<path d="M16.884 14.0692C16.7009 14.1011 16.5351 14.1953 16.4156 14.3353C16.2962 14.4753 16.2307 14.6522 16.2308 14.8349C16.2307 14.937 16.2512 15.0381 16.2909 15.1325C16.3307 15.2268 16.389 15.3125 16.4625 15.3847C16.536 15.4569 16.6233 15.5142 16.7193 15.5533C16.8153 15.5923 16.9183 15.6124 17.0222 15.6124H17.1007V19.9194H16.6772C16.4976 19.9194 16.3254 19.9895 16.1984 20.1142C16.0714 20.239 16 20.4082 16 20.5847C16 20.7611 16.0714 20.9304 16.1984 21.0551C16.3254 21.1799 16.4976 21.25 16.6772 21.25H19.6978C19.8774 21.25 20.0496 21.1799 20.1766 21.0551C20.3036 20.9304 20.375 20.7611 20.375 20.5847C20.375 20.4082 20.3036 20.239 20.1766 20.1142C20.0496 19.9895 19.8774 19.9194 19.6978 19.9194H19.2789V14.4214C19.2789 14.3221 19.2566 14.2242 19.2134 14.1345C19.1702 14.0448 19.1074 13.9656 19.0293 13.9026C18.9513 13.8396 18.86 13.7944 18.762 13.7702C18.6641 13.7461 18.5619 13.7435 18.4628 13.7628C17.7795 13.8957 16.9111 14.0645 16.884 14.0692Z" fill="#3987E5"/>
<rect width="36" height="34" rx="8" fill="#3987E5" fill-opacity="0.2"/>
<path d="M18 6C16.0222 6 14.0888 6.58649 12.4443 7.68531C10.7998 8.78413 9.51808 10.3459 8.7612 12.1732C8.00433 14.0004 7.8063 16.0111 8.19215 17.9509C8.57801 19.8907 9.53042 21.6725 10.9289 23.0711C12.3275 24.4696 14.1093 25.422 16.0491 25.8079C17.9889 26.1937 19.9996 25.9957 21.8268 25.2388C23.6541 24.4819 25.2159 23.2002 26.3147 21.5557C27.4135 19.9112 28 17.9778 28 16C27.997 13.3487 26.9425 10.8069 25.0678 8.93223C23.193 7.05752 20.6512 6.00299 18 6ZM18 24.0255C16.4127 24.0255 14.861 23.5548 13.5413 22.673C12.2215 21.7911 11.1928 20.5377 10.5854 19.0712C9.97796 17.6048 9.81903 15.9911 10.1287 14.4343C10.4384 12.8775 11.2027 11.4475 12.3251 10.3251C13.4475 9.20271 14.8775 8.43836 16.4343 8.12869C17.9911 7.81903 19.6048 7.97796 21.0712 8.58539C22.5377 9.19282 23.7911 10.2215 24.673 11.5413C25.5548 12.861 26.0255 14.4127 26.0255 16C26.0231 18.1277 25.1768 20.1677 23.6722 21.6722C22.1677 23.1768 20.1278 24.0231 18 24.0255V24.0255Z" fill="#3987E5"/>
</svg>
