<svg width="23" height="23" viewBox="0 0 23 23" fill="none" xmlns="http://www.w3.org/2000/svg">
<path d="M4.79165 21.0834C4.53748 21.0834 4.29372 20.9824 4.114 20.8027C3.93428 20.6229 3.83331 20.3792 3.83331 20.125V2.87502C3.83331 2.62085 3.93428 2.3771 4.114 2.19738C4.29372 2.01765 4.53748 1.91669 4.79165 1.91669H18.2083C18.4625 1.91669 18.7062 2.01765 18.886 2.19738C19.0657 2.3771 19.1666 2.62085 19.1666 2.87502V5.75002H17.25V3.83335H5.74998V19.1667H17.25V17.25H19.1666V20.125C19.1666 20.3792 19.0657 20.6229 18.886 20.8027C18.7062 20.9824 18.4625 21.0834 18.2083 21.0834H4.79165ZM17.25 15.3334V12.4584H10.5416V10.5417H17.25V7.66669L22.0416 11.5L17.25 15.3334Z" fill="#3987E5"/>
</svg>
