<svg width="36" height="34" viewBox="0 0 36 34" fill="none" xmlns="http://www.w3.org/2000/svg">
<rect width="36" height="34" rx="8" fill="#3987E5" fill-opacity="0.2"/>
<path fill-rule="evenodd" clip-rule="evenodd" d="M21.8677 18.8097C23.1452 18.6677 24.4226 17.9935 25.4871 16.8226C25.6645 16.6097 25.7 16.4323 25.6645 16.1839C27.1194 14.4097 28.0065 11.9968 28.0065 10.1516C28.0065 7.27742 26.6581 6.95806 24.3516 6.49677V6.46129C24.1742 6.17742 23.9258 6.03548 23.571 6.03548C23.1097 6.03548 22.7194 6.42581 22.7194 6.85161C22.7194 7.27742 23.1097 7.66774 23.571 7.66774C23.7839 7.66774 23.9613 7.59677 24.0677 7.45484L24.1032 7.49032C26.3387 7.95161 26.9065 8.05806 26.9065 10.1871C26.9065 11.8194 26.0903 14.0194 24.8129 15.6161C24.6 15.6161 24.4226 15.6871 24.2452 15.8645C23.6065 16.5742 22.5419 17.4258 21.3355 17.4258C20.0935 17.4258 19.0645 16.5742 18.4258 15.9C18.2484 15.7226 18.0355 15.6161 17.8581 15.6161C16.5806 14.0194 15.729 11.8194 15.729 10.1871C15.729 8.09355 16.3323 7.9871 18.5677 7.49032V7.41935C18.7097 7.56129 18.9226 7.63226 19.1 7.63226C19.5613 7.63226 19.9516 7.24194 19.9516 6.81613C19.9516 6.39032 19.5613 6 19.1 6C18.7452 6 18.4613 6.17742 18.3194 6.42581H18.2839C16.0129 6.95806 14.5935 7.24194 14.5935 10.1516C14.5935 12.0323 15.4806 14.4097 16.971 16.2194C16.9355 16.4323 16.971 16.6452 17.1484 16.8226C18.2484 17.9581 19.4548 18.6677 20.6968 18.8097L20.6613 22.4645C20.6613 24.9839 18.4613 27.0065 15.7645 27.0065C13.1032 27.0065 10.9032 24.9839 10.9032 22.4645V19.2355C12.4645 18.9871 13.6355 17.7806 13.6355 16.2548C13.6355 14.5516 12.1452 13.2032 10.3 13.2032C8.49032 13.2032 7 14.5516 7 16.2548C7 17.7806 8.20645 18.9871 9.73226 19.2355V22.4645C9.73226 25.5161 12.429 28 15.6935 28C19.029 28 21.6903 25.5161 21.6903 22.4645V18.8097H21.8677Z" fill="#3987E5"/>
</svg>
