<svg width="25" height="23" viewBox="0 0 25 23" fill="none" xmlns="http://www.w3.org/2000/svg">
<g clip-path="url(#clip0_70_89)">
<path d="M12.3089 21.5625C18.066 21.5625 22.7331 17.0574 22.7331 11.5C22.7331 5.94263 18.066 1.4375 12.3089 1.4375C6.55173 1.4375 1.88464 5.94263 1.88464 11.5C1.88464 17.0574 6.55173 21.5625 12.3089 21.5625Z" stroke="#3987E5" stroke-width="2" stroke-miterlimit="10" stroke-linecap="round" stroke-linejoin="round"/>
<path d="M12.3089 12.9375C14.365 12.9375 16.0318 11.3285 16.0318 9.34375C16.0318 7.35898 14.365 5.75 12.3089 5.75C10.2528 5.75 8.58594 7.35898 8.58594 9.34375C8.58594 11.3285 10.2528 12.9375 12.3089 12.9375Z" stroke="#3987E5" stroke-width="2" stroke-miterlimit="10" stroke-linecap="round" stroke-linejoin="round"/>
<path d="M4.4162 18.0406C5.75646 15.0938 8.73481 13.0094 12.3088 13.0094C15.8829 13.0094 18.9357 15.0938 20.2015 18.0406" stroke="#3987E5" stroke-width="2" stroke-miterlimit="10" stroke-linecap="round" stroke-linejoin="round"/>
</g>
<defs>
<clipPath id="clip0_70_89">
<rect width="23.8268" height="23" fill="white" transform="translate(0.395447)"/>
</clipPath>
</defs>
</svg>
