<svg width="32" height="32" viewBox="0 0 32 32" fill="none" xmlns="http://www.w3.org/2000/svg">
<path fill-rule="evenodd" clip-rule="evenodd" d="M4.36364 2.96437C3.56032 2.96437 2.90909 3.62797 2.90909 4.44655V23.101L6.2442 19.7025C6.51699 19.4246 6.88695 19.2684 7.27273 19.2684H21.8182C22.6215 19.2684 23.2727 18.6048 23.2727 17.7862V4.44655C23.2727 3.62797 22.6215 2.96437 21.8182 2.96437H4.36364ZM0 4.44655C0 1.99079 1.95367 0 4.36364 0H21.8182C24.2282 0 26.1818 1.99079 26.1818 4.44655V8.8931H27.6364C30.0464 8.8931 32 10.8839 32 13.3396V29.0297C32 31.6707 28.8665 32.9932 27.0339 31.1258L24.1248 28.1615H13.0909C10.6809 28.1615 8.72727 26.1707 8.72727 23.7149V22.2327H7.87521L4.96612 25.1971C3.13351 27.0645 0 25.742 0 23.101V4.44655ZM11.6364 22.2327V23.7149C11.6364 24.5335 12.2876 25.1971 13.0909 25.1971H24.7273C25.113 25.1971 25.4831 25.3533 25.7558 25.6312L29.0909 29.0297V13.3396C29.0909 12.5211 28.4397 11.8575 27.6364 11.8575H26.1818V17.7862C26.1818 20.242 24.2282 22.2327 21.8182 22.2327H11.6364ZM5.81818 8.8931C5.81818 8.07452 6.46941 7.41091 7.27273 7.41091H11.6364C12.4397 7.41091 13.0909 8.07452 13.0909 8.8931C13.0909 9.71167 12.4397 10.3753 11.6364 10.3753H7.27273C6.46941 10.3753 5.81818 9.71167 5.81818 8.8931ZM5.81818 14.8218C5.81818 14.0032 6.46941 13.3396 7.27273 13.3396H18.9091C19.7124 13.3396 20.3636 14.0032 20.3636 14.8218C20.3636 15.6404 19.7124 16.304 18.9091 16.304H7.27273C6.46941 16.304 5.81818 15.6404 5.81818 14.8218Z" fill="#E2E2E2"/>
</svg>
