<svg width="35" height="35" viewBox="0 0 35 35" fill="none" xmlns="http://www.w3.org/2000/svg">
<rect width="35" height="35" rx="8" fill="white" fill-opacity="0.4"/>
<path d="M25.4199 25.0088H9.58006C8.9934 25.0088 8.48007 24.6753 8.18673 24.0917C7.8934 23.5081 7.96674 22.8412 8.26007 22.2576L9.06673 20.8403C10.3867 18.5893 11.0467 16.0048 11.0467 13.337C11.0467 10.2523 12.8067 7.41773 15.3733 6.41729C15.8133 5.50022 16.62 5 17.5 5C18.38 5 19.1867 5.50022 19.6267 6.41729C22.1933 7.41773 23.9533 10.2523 23.9533 13.337C23.9533 16.0048 24.6133 18.5893 25.9333 20.8403L26.7399 22.2576C27.0333 22.8412 27.1066 23.5081 26.8133 24.0917C26.5933 24.6753 26.0066 25.0088 25.4199 25.0088Z" fill="white"/>
<path d="M13.9067 26.6762C14.2734 28.5937 15.7401 30.011 17.5 30.011C19.26 30.011 20.7267 28.5937 21.0934 26.6762H13.9067Z" fill="white"/>
</svg>
