<svg width="36" height="34" viewBox="0 0 36 34" fill="none" xmlns="http://www.w3.org/2000/svg">
<rect width="36" height="34" rx="8" fill="#3987E5" fill-opacity="0.2"/>
<path fill-rule="evenodd" clip-rule="evenodd" d="M19.26 8.00001C14.17 7.86001 10 11.95 10 17H8.21003C7.76003 17 7.54003 17.54 7.86003 17.85L10.65 20.65C10.85 20.85 11.16 20.85 11.36 20.65L14.15 17.85C14.46 17.54 14.24 17 13.79 17H12C12 13.1 15.18 9.95001 19.1 10C22.82 10.05 25.95 13.18 26 16.9C26.05 20.81 22.9 24 19 24C17.39 24 15.9 23.45 14.72 22.52C14.32 22.21 13.76 22.24 13.4 22.6C12.98 23.02 13.01 23.73 13.48 24.09C15 25.29 16.91 26 19 26C24.05 26 28.14 21.83 28 16.74C27.87 12.05 23.95 8.13001 19.26 8.00001ZM18.75 13C18.34 13 18 13.34 18 13.75V17.43C18 17.78 18.19 18.11 18.49 18.29L21.61 20.14C21.97 20.35 22.43 20.23 22.64 19.88C22.85 19.52 22.73 19.06 22.38 18.85L19.5 17.14V13.74C19.5 13.34 19.16 13 18.75 13Z" fill="#3987E5"/>
</svg>
