<svg width="36" height="34" viewBox="0 0 36 34" fill="none" xmlns="http://www.w3.org/2000/svg">
<rect width="36" height="34" rx="8" fill="#3987E5" fill-opacity="0.2"/>
<path d="M22.7955 6C21.1381 6 19.5795 6.64553 18.4086 7.81727L9.81774 16.4082C8.646 17.5804 8 19.1385 8 20.7955C8 24.2165 10.7835 27 14.2045 27C15.8629 27 17.4205 26.3545 18.5914 25.1827L27.1823 16.5923C28.3549 15.4201 29 13.8619 29 12.2045C29 8.78347 26.2165 6 22.7955 6ZM14.7061 15.5697L11.8424 18.4329C11.2113 19.0639 10.8636 19.9034 10.8636 20.7955C10.8636 21.0593 10.6502 21.2727 10.3864 21.2727C10.1226 21.2727 9.90909 21.0593 9.90909 20.7955C9.90909 19.6479 10.3556 18.5694 11.1675 17.758L14.0312 14.8948C14.2176 14.7084 14.5196 14.7084 14.7061 14.8948C14.8925 15.0812 14.8925 15.3833 14.7061 15.5697ZM25.8325 15.2425L21.8745 19.2L15.8004 13.1251L19.7584 9.16706C20.5694 8.3556 21.6479 7.90909 22.7955 7.90909C25.1641 7.90909 27.0909 9.83589 27.0909 12.2045C27.0909 13.3521 26.6444 14.431 25.8325 15.2425Z" fill="#3987E5"/>
</svg>
