<svg width="20" height="21" viewBox="0 0 20 21" fill="none" xmlns="http://www.w3.org/2000/svg">
<path d="M9.64386 13.2188C11.2317 13.2188 12.5189 11.9316 12.5189 10.3438C12.5189 8.75593 11.2317 7.46875 9.64386 7.46875C8.05604 7.46875 6.76886 8.75593 6.76886 10.3438C6.76886 11.9316 8.05604 13.2188 9.64386 13.2188Z" stroke="#3987E5" stroke-width="2" stroke-miterlimit="10" stroke-linecap="round" stroke-linejoin="round"/>
<path d="M18.0949 6.29431L17.3762 5.04944C16.9794 4.36159 16.1004 4.12656 15.4126 4.52331L15.0345 4.74181C13.597 5.57125 11.8001 4.53409 11.8001 2.8745V2.4375C11.8001 1.64328 11.1568 1 10.3626 1H8.92512C8.13091 1 7.48762 1.64328 7.48762 2.4375V2.8745C7.48762 4.53409 5.69075 5.57197 4.25325 4.74181L3.87519 4.52331C3.18734 4.12656 2.30831 4.36159 1.91156 5.04944L1.19281 6.29431C0.796062 6.98216 1.03109 7.86119 1.71894 8.25794L2.097 8.47644C3.5345 9.30659 3.5345 11.3809 2.097 12.2111L1.71894 12.4296C1.03109 12.8263 0.796062 13.7053 1.19281 14.3932L1.91156 15.6381C2.30831 16.3259 3.18734 16.5609 3.87519 16.1642L4.25325 15.9457C5.69075 15.1155 7.48762 16.1534 7.48762 17.813V18.25C7.48762 19.0442 8.13091 19.6875 8.92512 19.6875H10.3626C11.1568 19.6875 11.8001 19.0442 11.8001 18.25V17.813C11.8001 16.1534 13.597 15.1155 15.0345 15.9457L15.4126 16.1642C16.1004 16.5609 16.9794 16.3259 17.3762 15.6381L18.0949 14.3932C18.4917 13.7053 18.2567 12.8263 17.5688 12.4296L17.1907 12.2111C15.7532 11.3809 15.7532 9.30659 17.1907 8.47644L17.5688 8.25794C18.2567 7.86119 18.4924 6.98216 18.0949 6.29431Z" stroke="#3987E5" stroke-width="2" stroke-miterlimit="10" stroke-linecap="round" stroke-linejoin="round"/>
</svg>
