<svg width="36" height="34" viewBox="0 0 36 34" fill="none" xmlns="http://www.w3.org/2000/svg">
<rect width="36" height="34" rx="8" fill="#3987E5" fill-opacity="0.2"/>
<path d="M26.883 11.1613C26.7975 11.099 26.6915 11.0743 26.5884 11.0924C26.4852 11.1106 26.3932 11.1703 26.3325 11.2583C26.2718 11.3463 26.2474 11.4556 26.2645 11.5622C26.2817 11.6688 26.339 11.764 26.424 11.827C26.5827 11.9575 26.7238 12.1093 26.8437 12.2782L18.5 18.1506L10.1897 12.3017C10.3205 12.1236 10.4689 11.96 10.6326 11.8137C10.7146 11.746 10.7671 11.6475 10.7787 11.5398C10.7903 11.4321 10.76 11.3241 10.6945 11.2395C10.6289 11.1549 10.5335 11.1006 10.4292 11.0886C10.3248 11.0767 10.2202 11.1079 10.1382 11.1756C10.0916 11.2139 9 12.1293 9 13.3334V23.957C9.00062 24.4987 9.20933 25.0179 9.58037 25.4009C9.9514 25.7839 10.4545 25.9994 10.9792 26H26.0208C26.5456 25.9994 27.0486 25.7839 27.4196 25.4009C27.7907 25.0179 27.9994 24.4987 28 23.957V13.3334C28 11.9934 26.9287 11.1946 26.883 11.1613Z" fill="#3987E5"/>
<path d="M12.5625 12.7204C12.6405 12.7204 12.7177 12.7046 12.7897 12.6738C12.8618 12.643 12.9272 12.5979 12.9824 12.5409C13.0375 12.484 13.0812 12.4165 13.1111 12.3421C13.1409 12.2677 13.1563 12.188 13.1563 12.1075V8.2258H23.8438V12.1075C23.8438 12.188 23.8591 12.2677 23.889 12.3421C23.9188 12.4164 23.9625 12.484 24.0177 12.5409C24.0728 12.5978 24.1382 12.643 24.2103 12.6738C24.2823 12.7046 24.3595 12.7204 24.4375 12.7204C24.5155 12.7204 24.5927 12.7046 24.6647 12.6738C24.7368 12.643 24.8022 12.5978 24.8573 12.5409C24.9125 12.484 24.9562 12.4164 24.9861 12.3421C25.0159 12.2677 25.0313 12.188 25.0313 12.1075V8.07219C25.0309 7.78793 24.9214 7.51541 24.7267 7.31441C24.532 7.11341 24.2679 7.00034 23.9926 7H13.0074C12.7321 7.00034 12.4681 7.11341 12.2733 7.31441C12.0786 7.51541 11.9691 7.78793 11.9688 8.07219V12.1075C11.9687 12.188 11.9841 12.2677 12.0139 12.3421C12.0438 12.4165 12.0875 12.484 12.1426 12.5409C12.1978 12.5979 12.2632 12.643 12.3353 12.6738C12.4073 12.7046 12.4845 12.7204 12.5625 12.7204V12.7204Z" fill="#3987E5"/>
</svg>
