<svg width="23" height="24" viewBox="0 0 23 24" fill="none" xmlns="http://www.w3.org/2000/svg">
<path d="M19.6317 3.51471C17.4597 1.24823 14.5717 0 11.5 0C8.42812 0 5.54031 1.24823 3.36826 3.51471C1.19622 5.78119 0 8.79456 0 12C0 15.2053 1.19622 18.2188 3.36826 20.4853C5.54031 22.7518 8.42812 24 11.5 24C14.5717 24 17.4597 22.7518 19.6317 20.4853C21.8038 18.2188 23 15.2053 23 12C23 8.79456 21.8038 5.78119 19.6317 3.51471ZM5.76527 20.7369C6.24625 17.8471 8.64606 15.7156 11.5 15.7156C14.3541 15.7156 16.7538 17.8471 17.2347 20.7369C15.6019 21.9075 13.6264 22.5938 11.5 22.5938C9.37358 22.5938 7.39807 21.9075 5.76527 20.7369ZM7.84343 10.4938C7.84343 8.38971 9.48378 6.67822 11.5 6.67822C13.5162 6.67822 15.1566 8.38989 15.1566 10.4938C15.1566 12.5977 13.5162 14.3093 11.5 14.3093C9.48378 14.3093 7.84343 12.5977 7.84343 10.4938ZM18.402 19.7615C18.0393 18.4162 17.319 17.1956 16.3093 16.2422C15.6898 15.6572 14.9848 15.1956 14.2267 14.8702C15.5968 13.9376 16.5044 12.3243 16.5044 10.4938C16.5044 7.61444 14.2594 5.27197 11.5 5.27197C8.74064 5.27197 6.49577 7.61444 6.49577 10.4938C6.49577 12.3243 7.40334 13.9376 8.77328 14.8702C8.0154 15.1956 7.31016 15.657 6.69073 16.242C5.68121 17.1954 4.96071 18.416 4.598 19.7613C2.6002 17.8253 1.34766 15.0626 1.34766 12C1.34766 6.15857 5.90196 1.40625 11.5 1.40625C17.098 1.40625 21.6523 6.15857 21.6523 12C21.6523 15.0628 20.3998 17.8255 18.402 19.7615Z" fill="white"/>
</svg>
