<svg width="69" height="52" viewBox="0 0 69 52" fill="none" xmlns="http://www.w3.org/2000/svg">
<path d="M60.375 0H8.62511C6.33763 0 4.14383 0.908701 2.52633 2.5262C0.908831 4.1437 0.000129814 6.3375 0.000129814 8.62498V43.1249C-0.00546798 44.0976 0.17002 45.0627 0.517629 45.9712C1.19886 47.9059 2.54336 49.5369 4.31262 50.5747C5.62383 51.3339 7.11001 51.7389 8.62511 51.7499H60.375C61.8137 51.7432 63.2283 51.3804 64.4925 50.6937C65.7568 50.007 66.8312 49.0179 67.62 47.8148C68.5128 46.4128 68.9911 44.787 69 43.1249V8.62498C69 6.3375 68.0913 4.1437 66.4738 2.5262C64.8563 0.908701 62.6625 0 60.375 0ZM35.5782 46.0035H8.62511C8.31886 46.0006 8.01567 45.9421 7.73027 45.831L23.3415 24.5273L36.1388 37.3138L40.1926 41.3676L44.7961 46.0035H35.5782ZM63.2536 43.1249C63.2508 43.8875 62.9466 44.618 62.4073 45.1572C61.8681 45.6965 61.1376 46.0007 60.375 46.0035H52.9575L44.3325 37.3138L51.6853 30.0473L63.3075 42.9848L63.2536 43.1249ZM63.2536 34.3598L53.9063 23.9451C53.6457 23.6607 53.3316 23.4306 52.982 23.2678C52.6323 23.105 52.254 23.0127 51.8686 22.9964C51.4784 22.9778 51.0888 23.0433 50.7261 23.1884C50.3634 23.3335 50.0361 23.5548 49.7663 23.8373L40.2572 33.2601L25.0449 18.0801C24.7421 17.7943 24.3842 17.5733 23.9931 17.4306C23.6019 17.2879 23.1858 17.2264 22.7701 17.25C22.3571 17.2885 21.9568 17.413 21.5947 17.6153C21.2327 17.8177 20.9169 18.0935 20.6677 18.4251L5.74653 38.8124V8.62498C5.74937 7.86241 6.05356 7.13188 6.59278 6.59265C7.13201 6.05343 7.86254 5.74924 8.62511 5.7464H60.375C61.1376 5.74924 61.8681 6.05343 62.4073 6.59265C62.9466 7.13188 63.2508 7.86241 63.2536 8.62498V34.3598Z" fill="#3987E5"/>
<path d="M40.2465 25.8749C43.4201 25.8749 45.9929 23.3022 45.9929 20.1285C45.9929 16.9549 43.4201 14.3821 40.2465 14.3821C37.0728 14.3821 34.5001 16.9549 34.5001 20.1285C34.5001 23.3022 37.0728 25.8749 40.2465 25.8749Z" fill="#89BBF8"/>
</svg>
