<svg width="274" height="234" viewBox="0 0 274 234" fill="none" xmlns="http://www.w3.org/2000/svg">
<path d="M269.972 139.18L125.637 230.357C122.641 232.244 119.242 233.237 115.783 233.237C112.323 233.237 108.925 232.244 105.928 230.357L4.49844 166.788C3.13116 165.929 1.99539 164.692 1.20562 163.202C0.415848 161.711 0 160.02 0 158.298C0 156.575 0.415848 154.884 1.20562 153.393C1.99539 151.903 3.13116 150.666 4.49844 149.807L155.388 54.6711L269.833 124.107C271.062 124.848 272.089 125.932 272.809 127.249C273.529 128.565 273.915 130.066 273.93 131.599C273.944 133.132 273.585 134.642 272.89 135.974C272.194 137.306 271.188 138.412 269.972 139.18V139.18Z" fill="#FF8E31"/>
<path d="M110.576 127.101L70.3393 153.563C70.3393 153.563 121.472 185.555 141.396 198.476L183.158 172.655" fill="url(#paint0_linear_56_218)"/>
<path d="M73.0726 156.577L32.8448 183.028C32.8448 183.028 45.3306 191.97 65.2074 204.84L107.797 176.288" fill="url(#paint1_linear_56_218)"/>
<path d="M79.6734 124.676V127.67L81.0679 129.537" fill="#ADCEE1"/>
<path d="M134.934 88.1153L81.2539 124.432C80.7623 124.764 80.3584 125.23 80.082 125.784C79.8055 126.339 79.6661 126.962 79.6773 127.593C79.6886 128.224 79.8502 128.841 80.1462 129.383C80.4422 129.925 80.8624 130.374 81.3655 130.684L162.825 180.998C163.962 181.7 165.247 182.063 166.553 182.05C167.858 182.038 169.138 181.65 170.263 180.927L223.692 146.63C227.578 143.149 227.281 136.592 223.692 136.318L142.716 87.9834C141.53 87.234 140.179 86.8504 138.808 86.8736C137.438 86.8969 136.099 87.326 134.934 88.1153V88.1153Z" fill="#88D3D8"/>
<path d="M134.934 85.6286L81.2539 121.945C80.7623 122.277 80.3584 122.743 80.082 123.298C79.8055 123.852 79.6661 124.475 79.6773 125.106C79.6886 125.737 79.8502 126.354 80.1462 126.896C80.4422 127.438 80.8624 127.887 81.3655 128.198L162.825 178.45C163.962 179.152 165.247 179.515 166.553 179.503C167.858 179.49 169.138 179.103 170.263 178.379L223.692 144.082C224.319 143.685 224.84 143.116 225.202 142.43C225.564 141.744 225.755 140.966 225.755 140.175C225.755 139.383 225.564 138.605 225.202 137.92C224.84 137.234 224.319 136.664 223.692 136.267L142.716 85.4256C141.524 84.6867 140.17 84.3154 138.799 84.3511C137.429 84.3869 136.093 84.8284 134.934 85.6286V85.6286Z" fill="white"/>
<path d="M137.119 80.6652C137.119 80.6652 159.432 2.12454 159.274 2.12454C159.116 2.12454 159.971 -1.36706 163.922 0.602036L249.454 55.5744C249.454 55.5744 253.6 57.4116 252.792 61.6644C251.983 65.9173 231 138.52 231 138.52C230.561 139.211 229.933 139.73 229.206 140.004C228.478 140.278 227.69 140.292 226.955 140.043C224.352 139.16 139.081 85.0805 139.081 85.0805C138.299 84.7572 137.661 84.1197 137.296 83.2987C136.931 82.4777 136.868 81.5355 137.119 80.6652V80.6652Z" fill="#053855"/>
<path d="M160.687 7.82883L248.292 63.5828L230.116 130.177L141.396 76.0774L160.687 7.82883Z" fill="#68E1FD"/>
<path d="M131.634 93.9516L112.008 107.299C111.662 107.537 111.378 107.868 111.184 108.262C110.99 108.655 110.893 109.096 110.901 109.542C110.909 109.989 111.024 110.425 111.232 110.809C111.441 111.194 111.737 111.512 112.092 111.734L182.535 155.572C183.588 156.236 184.782 156.585 185.998 156.585C187.214 156.585 188.408 156.236 189.461 155.572C193.988 152.69 201.789 147.452 206.558 144.306C206.992 144.025 207.351 143.626 207.6 143.146C207.848 142.667 207.977 142.125 207.973 141.574C207.969 141.023 207.833 140.483 207.578 140.008C207.323 139.532 206.959 139.139 206.521 138.865C192.278 129.822 145.793 100.295 135.613 93.8602C135.006 93.476 134.314 93.2813 133.612 93.2974C132.91 93.3135 132.226 93.5398 131.634 93.9516Z" fill="#68E1FD"/>
<path d="M132.685 130.177L157.293 145.29C157.67 145.524 157.984 145.863 158.202 146.272C158.42 146.681 158.535 147.146 158.535 147.62C158.535 148.093 158.42 148.558 158.202 148.967C157.984 149.376 157.67 149.715 157.293 149.949L142.865 159.165C142.367 159.48 141.803 159.646 141.228 159.646C140.654 159.646 140.089 159.48 139.592 159.165L114.407 143.534C114.092 143.338 113.83 143.055 113.648 142.712C113.466 142.37 113.37 141.981 113.37 141.586C113.37 141.19 113.466 140.801 113.648 140.459C113.83 140.116 114.092 139.833 114.407 139.637L129.458 130.197C129.948 129.889 130.503 129.725 131.069 129.721C131.635 129.718 132.191 129.875 132.685 130.177V130.177Z" fill="#68E1FD"/>
<path opacity="0.1" d="M131.634 93.9516L112.008 107.299C111.662 107.537 111.378 107.868 111.184 108.262C110.99 108.655 110.893 109.096 110.901 109.542C110.909 109.989 111.024 110.425 111.232 110.809C111.441 111.194 111.737 111.512 112.092 111.734L182.535 155.572C183.588 156.236 184.782 156.585 185.998 156.585C187.214 156.585 188.408 156.236 189.461 155.572C193.988 152.69 201.789 147.452 206.558 144.306C206.992 144.025 207.351 143.626 207.6 143.146C207.848 142.667 207.977 142.125 207.973 141.574C207.969 141.023 207.833 140.483 207.578 140.008C207.323 139.532 206.959 139.139 206.521 138.865C192.278 129.822 145.793 100.295 135.613 93.8602C135.006 93.476 134.314 93.2813 133.612 93.2974C132.91 93.3135 132.226 93.5398 131.634 93.9516Z" fill="#053855"/>
<path opacity="0.1" d="M132.685 130.177L157.293 145.29C157.67 145.524 157.984 145.863 158.202 146.272C158.42 146.681 158.535 147.146 158.535 147.62C158.535 148.093 158.42 148.558 158.202 148.967C157.984 149.376 157.67 149.715 157.293 149.949L142.865 159.165C142.367 159.48 141.803 159.646 141.228 159.646C140.654 159.646 140.089 159.48 139.592 159.165L114.407 143.534C114.092 143.338 113.83 143.055 113.648 142.712C113.466 142.37 113.37 141.981 113.37 141.586C113.37 141.19 113.466 140.801 113.648 140.459C113.83 140.116 114.092 139.833 114.407 139.637L129.458 130.197C129.948 129.889 130.503 129.725 131.069 129.721C131.635 129.718 132.191 129.875 132.685 130.177V130.177Z" fill="#053855"/>
<path d="M131.281 40.6742C130.529 40.0781 129.733 39.5519 128.901 39.101C126.456 37.7409 125.721 36.259 126.716 33.4373C128.715 27.7431 121.389 17.1364 115.56 19.6637C111.841 21.2877 108.801 25.8552 107.583 29.9152C107.025 31.6664 106.948 33.5571 107.36 35.3556C107.741 36.8477 109.396 38.4006 107.824 39.5882C105.147 41.6994 101.019 42.5114 100.052 46.4902C99.9085 47.0322 99.8698 47.6009 99.9386 48.1602C100.007 48.7194 100.182 49.2568 100.452 49.7382C100.844 50.3074 101.339 50.7817 101.907 51.1311C102.475 51.4805 103.104 51.6974 103.752 51.7682C106.03 52.164 105.296 52.4787 104.784 54.4478C103.353 59.9288 108.392 61.5528 112.371 62.111C117.326 62.7708 123.443 63.3595 128.045 60.7915C129.431 60.0201 130.741 58.7615 130.834 56.965C130.927 55.1684 128.268 53.3414 128.975 51.4028C129.188 50.941 129.508 50.5489 129.905 50.266C131.271 49.0378 133.103 48.033 133.623 46.0334C134.07 43.6786 132.852 41.9531 131.281 40.6742Z" fill="#96D88D"/>
<path d="M131.281 40.6844C130.529 40.0883 129.733 39.562 128.901 39.1111C126.456 37.751 125.721 36.2691 126.716 33.4474C127.711 30.6257 126.372 26.4947 124.048 23.4395C124.209 24.2979 124.234 25.1803 124.122 26.0481C123.611 30.1081 116.564 35.7921 119.938 39.1111C122.04 41.1411 130.816 43.1711 125.898 47.8503C124.261 49.4032 121.705 49.5859 122.895 52.6817C123.406 54.0113 124.884 54.7827 125.489 56.0921C126.335 57.9292 126.251 59.3299 124.791 60.7509C123.462 61.895 121.834 62.5489 120.143 62.6185C122.881 62.6375 125.588 61.9854 128.064 60.7103C129.449 59.9389 130.76 58.6803 130.853 56.8838C130.946 55.0872 128.287 53.2602 128.994 51.3216C129.206 50.8598 129.527 50.4677 129.923 50.1848C131.29 48.9566 133.121 47.9518 133.642 45.9522C134.07 43.6888 132.852 41.9633 131.281 40.6844Z" fill="#7EC971"/>
<path d="M114.091 55.2293C111.701 52.7426 108.438 52.1133 105.259 52.2452C105.3 52.3258 105.323 52.4166 105.324 52.5091C105.34 52.5893 105.34 52.6725 105.324 52.7527V52.8136C108.354 52.6918 111.469 53.2501 113.747 55.6252C115.462 57.5389 116.625 59.9598 117.094 62.5881H117.67C117.169 59.8031 115.923 57.2426 114.091 55.2293V55.2293Z" fill="#378729"/>
<path d="M120.413 57.0868C120.072 57.6146 119.762 58.1559 119.483 58.7108C119.632 56.6808 119.79 54.7523 119.994 52.773C120.375 51.3728 120.873 50.0137 121.482 48.713C122.337 46.8493 123.5 45.1736 124.912 43.77C126.68 42.2144 128.702 41.0399 130.872 40.3088C130.708 40.2099 130.55 40.1015 130.397 39.984L130.249 39.9028C126.53 41.4761 123.499 43.6279 121.417 47.5458C120.993 48.3474 120.617 49.1781 120.292 50.0325C120.45 48.7333 120.617 47.424 120.812 46.1349C121.742 40.0449 123.267 33.9549 126.79 29.1134C126.718 28.8737 126.659 28.6297 126.614 28.3826C122.96 33.2546 121.286 39.3547 120.338 45.4853C119.966 47.8807 119.669 50.2964 119.408 52.7223C119.749 41.6926 119.694 30.6596 119.241 19.6231C119.049 19.5558 118.859 19.4779 118.674 19.3897C119.089 29.357 119.173 39.331 118.925 49.3119C118.802 49.3376 118.692 49.4139 118.618 49.525C118.451 47.9213 118.228 46.3278 117.921 44.7545C116.712 38.492 114.137 30.6257 108.299 27.9157L108.224 28.0578L108.066 28.4739C114.035 31.2855 116.433 39.5679 117.577 45.9827C117.951 48.2304 118.193 50.5018 118.302 52.7832C118.141 55.0365 118.026 57.2898 117.958 59.5431C117.469 56.102 116.582 52.7426 115.318 49.5453C113.802 45.871 110.865 40.6945 106.811 40.2784C106.425 40.5243 106.021 40.7347 105.603 40.9077C110.632 40.1261 114.053 47.4037 115.513 51.6464C116.664 55.193 117.444 58.8704 117.837 62.6084H117.902C117.811 70.0741 118.218 77.5372 119.12 84.9384C119.195 85.5778 120.124 85.588 120.05 84.9384C119.148 77.5372 118.741 70.0741 118.832 62.6084H119.223C119.223 61.8268 119.306 61.0453 119.362 60.2637C119.672 59.5673 120.017 58.8896 120.394 58.2337C121.477 56.215 122.984 54.5067 124.791 53.2501C126.075 52.4836 127.467 51.9554 128.91 51.687C128.939 51.4471 129.019 51.2179 129.142 51.0171C127.677 51.2716 126.254 51.7643 124.922 52.4787C123.1 53.5955 121.553 55.1765 120.413 57.0868Z" fill="#378729"/>
<path d="M118.434 87.9432C122.545 87.8123 125.79 84.4221 125.682 80.3709C125.574 76.3197 122.153 73.1416 118.042 73.2725C113.931 73.4034 110.686 76.7936 110.794 80.8448C110.903 84.896 114.323 88.074 118.434 87.9432Z" fill="#FFB339"/>
<path d="M117.27 87.9326C112.203 84.3395 115.132 76.118 120.487 73.6617C119.686 73.4133 118.855 73.3003 118.023 73.3268C113.914 73.4587 110.669 76.8488 110.772 80.8987C110.883 84.5628 113.7 87.5063 117.27 87.9326Z" fill="#FFA522"/>
<path d="M174.809 66.577C183.966 72.2103 204.382 85.1414 212.127 90.054C212.986 90.6 213.643 91.4576 213.982 92.4776C214.322 93.4977 214.323 94.6155 213.986 95.6365L213.837 96.0831C213.63 96.7163 213.298 97.292 212.864 97.7694C212.43 98.2467 211.905 98.6142 211.327 98.8456C210.749 99.0771 210.131 99.1669 209.517 99.1087C208.903 99.0505 208.309 98.8458 207.776 98.5089L170.384 74.9203C169.488 74.3556 168.804 73.4627 168.453 72.3999C168.102 71.3372 168.108 70.1733 168.468 69.1145V69.1145C168.691 68.4569 169.042 67.8599 169.496 67.3647C169.951 66.8696 170.499 66.4882 171.102 66.2469C171.705 66.0056 172.349 65.9102 172.989 65.9672C173.629 66.0242 174.25 66.2322 174.809 66.577V66.577Z" fill="white"/>
<path d="M180.198 75.2237C180.388 74.0309 179.797 72.9217 178.876 72.7461C177.956 72.5705 177.055 73.3951 176.864 74.5878C176.673 75.7806 177.265 76.8899 178.185 77.0655C179.106 77.241 180.007 76.4164 180.198 75.2237Z" fill="#33BDD3"/>
<path d="M184.841 78.2082C185.032 77.0155 184.441 75.9062 183.52 75.7306C182.6 75.555 181.699 76.3796 181.508 77.5724C181.317 78.7651 181.908 79.8744 182.829 80.05C183.749 80.2256 184.65 79.401 184.841 78.2082Z" fill="#33BDD3"/>
<path d="M189.497 81.205C189.688 80.0122 189.097 78.9029 188.176 78.7274C187.256 78.5518 186.355 79.3764 186.164 80.5691C185.973 81.7619 186.564 82.8712 187.485 83.0467C188.405 83.2223 189.306 82.3977 189.497 81.205Z" fill="#33BDD3"/>
<path d="M194.364 84.3139C194.555 83.1211 193.963 82.0118 193.043 81.8362C192.122 81.6607 191.221 82.4853 191.03 83.678C190.839 84.8708 191.431 85.98 192.351 86.1556C193.272 86.3312 194.173 85.5066 194.364 84.3139Z" fill="#33BDD3"/>
<path d="M199.231 87.4537C199.422 86.2609 198.831 85.1516 197.91 84.976C196.989 84.8005 196.089 85.6251 195.898 86.8178C195.707 88.0106 196.298 89.1198 197.219 89.2954C198.139 89.471 199.04 88.6464 199.231 87.4537Z" fill="#33BDD3"/>
<path d="M204.067 90.4909C204.258 89.2981 203.667 88.1888 202.746 88.0132C201.826 87.8377 200.925 88.6623 200.734 89.855C200.543 91.0478 201.135 92.157 202.055 92.3326C202.976 92.5082 203.877 91.6836 204.067 90.4909Z" fill="#33BDD3"/>
<path d="M205.64 58.9121C206.54 53.2851 203.383 47.9822 198.588 47.0676C193.793 46.153 189.176 49.9732 188.276 55.6001C187.375 61.2271 190.533 66.5301 195.327 67.4447C200.122 68.3592 204.739 64.5391 205.64 58.9121Z" fill="white"/>
<path d="M200.236 56.6605C200.801 54.5456 199.888 52.3947 198.198 51.8563C196.507 51.3179 194.678 52.596 194.113 54.7109C193.548 56.8258 194.461 58.9767 196.152 59.5151C197.842 60.0534 199.671 58.7754 200.236 56.6605Z" fill="#33BDD3"/>
<path d="M188.698 61.1569C188.698 61.1569 191.701 57.5334 195.811 58.9747C197.287 59.4762 198.53 60.5771 199.284 62.0503C200.038 63.5234 200.246 65.2563 199.864 66.8917C199.864 66.8917 196.582 69.216 192.185 66.0695C192.185 66.0797 189.247 64.0294 188.698 61.1569Z" fill="#33BDD3"/>
<path d="M167.474 77.7623C168.421 77.5873 169.353 77.3293 170.263 76.9909C171.267 76.5545 167.678 75.8034 167.678 75.8034" fill="#1CA9B7"/>
<path d="M158.53 50.1137C159.678 49.4687 160.958 49.1542 162.249 49.2002C163.997 49.4032 162.026 53.2602 162.026 53.2602" fill="#1CA9B7"/>
<path d="M163.448 49.6265L174.976 57.1375C175.52 57.4943 175.936 58.0427 176.155 58.6922C176.375 59.3417 176.385 60.0535 176.185 60.7103L171.918 74.7173C171.35 76.5646 170.058 77.7623 168.533 76.7473L156.159 69.551C155.623 69.194 155.213 68.6501 154.996 68.0073C154.778 67.3645 154.766 66.6603 154.96 66.0086L159.376 51.3013C159.506 50.8678 159.723 50.4717 160.012 50.1421C160.3 49.8126 160.653 49.558 161.044 49.3973C161.435 49.2365 161.854 49.1737 162.27 49.2133C162.686 49.253 163.089 49.3942 163.448 49.6265V49.6265Z" fill="#1CA9B7"/>
<path d="M161.077 50.2863L172.606 57.7973C173.151 58.1525 173.569 58.7002 173.79 59.3499C174.011 59.9995 174.023 60.7121 173.823 61.3701L169.556 75.3771C168.989 77.2244 167.697 78.4221 166.172 77.4071L153.798 70.2107C153.262 69.8538 152.852 69.3099 152.634 68.6671C152.417 68.0242 152.404 67.32 152.599 66.6684L157.015 51.961C157.145 51.529 157.362 51.1343 157.65 50.8058C157.938 50.4773 158.289 50.2235 158.679 50.0628C159.069 49.9022 159.486 49.8389 159.901 49.8776C160.316 49.9162 160.718 50.0559 161.077 50.2863V50.2863Z" fill="#33BDD3"/>
<path d="M163.755 50.9257C163.755 50.9257 165.614 42.8057 170.356 44.0542C175.097 45.3026 171.285 55.7165 171.285 55.7165C171.285 55.7165 171.285 56.7315 173.452 57.1071C173.452 57.1071 178.1 44.9271 171.815 41.7095C165.531 38.492 161.951 48.0127 161.589 49.7483C161.796 50.1634 162.114 50.499 162.502 50.7096C162.889 50.9203 163.327 50.9957 163.755 50.9257V50.9257Z" fill="#EBEDED"/>
<path d="M163.962 63.7071C165.629 63.4497 166.771 61.6259 166.513 59.6336C166.255 57.6413 164.694 56.2349 163.027 56.4923C161.36 56.7497 160.217 58.5735 160.475 60.5658C160.734 62.5581 162.294 63.9645 163.962 63.7071Z" fill="#EBEDED"/>
<path d="M164.217 58.8184L163.655 58.6053C163.053 58.3772 162.396 58.7247 162.187 59.3813L159.436 68.03C159.228 68.6867 159.546 69.4038 160.147 69.6318L160.709 69.8449C161.311 70.073 161.968 69.7255 162.177 69.0689L164.927 60.4202C165.136 59.7635 164.818 59.0464 164.217 58.8184Z" fill="#EBEDED"/>
<path d="M102.516 168.564L101.521 167.742L102.404 154.862L107.592 155.065C107.592 155.065 107.332 160.566 108.438 161.916C109.544 163.266 112.668 162.606 112.956 162.738C113.245 162.87 115.327 162.383 116.173 163.489C117.019 164.596 112.798 167.235 110.595 167.61C109.112 167.819 107.608 167.764 106.142 167.448C106.142 167.448 105.9 164.119 105.138 164.403C104.375 164.687 104.087 168.148 104.087 168.148L102.516 168.564Z" fill="#9C4100"/>
<path d="M100.387 128.025C99.9593 141.494 99.5038 159.044 99.5038 159.044C99.5038 159.044 102.293 163.225 109.963 161.439C110.781 161.246 112.603 139.779 113.496 128.614C109.223 127.34 104.741 127.139 100.387 128.025V128.025Z" fill="#7EC971"/>
<path d="M116.043 179.628L115.048 178.806L115.931 165.925L121.119 166.128C121.119 166.128 120.859 171.63 121.965 172.979C123.071 174.329 126.195 173.67 126.483 173.802C126.772 173.934 128.854 173.446 129.7 174.553C130.546 175.659 126.325 178.298 124.122 178.674C122.639 178.883 121.135 178.828 119.669 178.511C119.669 178.511 119.427 175.182 118.665 175.466C117.902 175.75 117.614 179.212 117.614 179.212L116.043 179.628Z" fill="#053855"/>
<path d="M118.274 130.471C114.863 128.783 111.2 127.786 107.462 127.528C108.094 132.603 108.68 136.064 108.782 136.318C109.033 136.957 113.784 168.96 113.784 168.96C119.362 171.427 126.019 169.366 126.019 169.366C126.019 169.366 123.732 144.397 123.546 140.225C123.546 139.779 123.524 139.329 123.481 138.875C123.396 137.09 122.867 135.363 121.949 133.882C121.032 132.401 119.761 131.221 118.274 130.471V130.471Z" fill="#7EC971"/>
<path d="M83.8013 137.911C83.8013 137.911 93.3027 128.522 100.387 128.025C107.471 127.528 117.54 135.546 116.75 140.205C115.959 144.864 102.395 154.872 102.395 154.872" fill="#7EC971"/>
<path d="M103.232 121.154L95.6641 115.307C95.3598 115.072 95.1397 114.729 95.0413 114.337C94.943 113.944 94.9725 113.527 95.1249 113.155L100.489 100.133C100.583 99.9047 100.721 99.7011 100.893 99.5357C101.065 99.3704 101.267 99.247 101.486 99.174C101.706 99.1009 101.937 99.0799 102.164 99.1122C102.391 99.1445 102.609 99.2296 102.804 99.3615L111.264 105.117C111.609 105.35 111.86 105.718 111.967 106.145C112.074 106.572 112.029 107.028 111.841 107.421L105.584 120.524C105.478 120.747 105.331 120.942 105.15 121.097C104.97 121.251 104.762 121.362 104.539 121.422C104.316 121.481 104.084 121.488 103.859 121.442C103.633 121.396 103.42 121.297 103.232 121.154V121.154Z" fill="#1784AA"/>
<path d="M102.553 120.697L94.9575 114.85C94.6532 114.616 94.4331 114.273 94.3347 113.88C94.2364 113.488 94.2659 113.07 94.4183 112.699L99.7827 99.6762C99.8767 99.448 100.014 99.2444 100.186 99.079C100.358 98.9136 100.561 98.7903 100.78 98.7172C100.999 98.6442 101.23 98.6231 101.457 98.6555C101.685 98.6878 101.903 98.7728 102.098 98.9048L110.558 104.66C110.902 104.894 111.153 105.261 111.26 105.688C111.367 106.116 111.322 106.571 111.134 106.964L104.877 120.068C104.771 120.285 104.625 120.476 104.447 120.628C104.269 120.78 104.063 120.889 103.844 120.949C103.625 121.008 103.396 121.016 103.174 120.973C102.952 120.929 102.74 120.835 102.553 120.697V120.697Z" fill="#29ABE2"/>
<path d="M103.818 119.895L95.3016 113.328L100.889 99.7675L110.353 106.203L103.818 119.895Z" fill="#E4F5FD"/>
<path d="M99.8756 105.523C97.0866 107.207 92.6519 109.126 89.649 111.359C89.1749 111.714 88.4683 112.952 88.9332 112.77C88.7286 113.023 90.6717 113.856 90.4858 114.13C90.43 114.221 91.7408 113.429 91.8152 113.46C92.9304 114.107 94.2264 114.277 95.4503 113.937L95.9431 113.541L96.0639 113.46C96.0847 113.42 96.1132 113.385 96.1476 113.358L96.222 113.297C96.2357 113.22 96.2756 113.151 96.3335 113.105C96.9843 112.546 98.416 112.252 98.5648 111.308C98.5393 111.059 98.4699 110.818 98.3603 110.598C98.326 110.54 98.3127 110.471 98.323 110.403C98.3334 110.335 98.3665 110.274 98.416 110.232C98.4705 109.951 98.4731 109.661 98.4236 109.378C98.3741 109.096 98.2736 108.827 98.1278 108.588L98.2952 108.375C99.087 107.774 99.836 107.109 100.536 106.385C100.612 106.308 100.662 106.204 100.675 106.091V106.04C100.678 106.01 100.678 105.979 100.675 105.949C100.665 105.853 100.632 105.762 100.581 105.683C100.53 105.604 100.461 105.541 100.382 105.498C100.302 105.456 100.214 105.436 100.126 105.44C100.037 105.444 99.9514 105.473 99.8756 105.523V105.523Z" fill="#E85454"/>
<path d="M98.4439 108.852C98.2301 108.263 97.9233 108.233 97.4305 108.466C96.4524 108.95 95.5185 109.535 94.6415 110.212C94.4927 110.324 94.6415 110.577 94.7902 110.476C95.3387 110.07 97.7187 108.151 98.2022 108.994C98.6856 109.836 97.0865 110.415 96.6403 110.669L94.9297 111.684C94.7716 111.775 94.9297 112.039 95.0784 111.948L96.1754 111.328C96.1669 111.358 96.1669 111.39 96.1754 111.42C96.2683 111.554 96.3778 111.674 96.5008 111.775C96.4026 111.928 96.3402 112.106 96.3191 112.291C96.298 112.477 96.3189 112.666 96.38 112.841L96.4265 112.902C95.955 113.437 95.3332 113.786 94.6596 113.893C93.9861 114 93.2992 113.858 92.7077 113.49C92.5682 113.379 92.373 113.592 92.5125 113.714C93.6281 114.627 95.9337 114.363 96.7147 113.013C96.8899 112.988 97.0598 112.93 97.2167 112.841C97.7237 112.649 98.1801 112.325 98.5462 111.897C98.6468 111.711 98.6998 111.499 98.6998 111.283C98.6998 111.067 98.6468 110.855 98.5462 110.669V110.618C98.6136 110.547 98.6673 110.462 98.704 110.368C98.7406 110.273 98.7596 110.172 98.7596 110.07C98.7596 109.967 98.7406 109.866 98.704 109.772C98.6673 109.678 98.6136 109.593 98.5462 109.522C98.5742 109.292 98.5386 109.059 98.4439 108.852V108.852ZM98.323 111.613C98.1378 111.892 97.8874 112.113 97.5979 112.252C97.4212 112.364 96.975 112.709 96.7983 112.658C96.4358 112.557 96.6589 112.039 96.7983 111.816C96.9977 111.731 97.183 111.611 97.3469 111.46L98.0255 110.993L98.2487 110.811C98.3145 110.93 98.3553 111.064 98.3682 111.203C98.381 111.341 98.3656 111.481 98.323 111.613ZM97.4491 111.044C97.0586 111.308 96.7426 111.643 96.38 111.166C96.9285 110.861 97.477 110.557 97.9883 110.202C98.1455 110.102 98.2817 109.967 98.3881 109.806C98.6763 110.344 97.7466 110.841 97.4491 111.044Z" fill="#653200"/>
<path d="M91.4526 109.034C91.4526 109.034 93.312 109.501 93.4979 113.856L92.0755 117.723L84.3312 113.338C84.3312 113.338 86.1813 110.801 91.4526 109.034Z" fill="#88D3D8"/>
<path d="M109.833 111.075C109.256 112.465 108.68 113.724 108.196 115.135C107.843 114.191 107.518 113.419 107.081 112.516C107.061 112.484 107.04 112.453 107.016 112.425C106.937 112.285 106.817 112.178 106.675 112.122C106.534 112.066 106.379 112.063 106.236 112.115C106.093 112.166 105.97 112.269 105.887 112.406C105.804 112.544 105.766 112.707 105.779 112.871C105.922 113.735 106.24 114.553 106.709 115.267C106.643 115.303 106.584 115.351 106.532 115.409C105.417 116.759 105.686 118.829 105.816 120.484C105.822 120.594 105.853 120.7 105.907 120.793C105.96 120.886 106.035 120.962 106.124 121.014C106.213 121.066 106.313 121.093 106.414 121.09C106.514 121.088 106.613 121.057 106.7 121.001C106.804 121.003 106.906 120.975 106.997 120.92C107.999 120.167 108.717 119.041 109.015 117.753C109.637 115.652 110.456 113.318 109.833 111.075Z" fill="#E85454"/>
<path d="M80.9006 110.963L83.6897 110.049C84.3869 110.161 90.4392 112.861 92.9866 117.571C93.2909 119.007 93.496 120.466 93.6002 121.935C93.8326 123.894 94.0186 125.863 94.1022 127.832C94.2191 129.98 94.188 132.135 94.0092 134.278C93.9256 135.191 93.8698 135.658 93.721 136.561C93.3963 136.869 93.0251 137.113 92.624 137.282C84.2568 140.459 78.065 135.313 77.814 134.562C77.563 133.811 77.1632 123.255 76.9587 116.962C76.9234 115.628 77.29 114.32 78.0021 113.236C78.7143 112.152 79.7325 111.354 80.9006 110.963Z" fill="#88D3D8"/>
<path d="M88.3103 100.072C88.3103 100.072 90.1696 110.425 86.7019 111.542C83.2341 112.658 79.097 108.344 78.7995 106.213C78.502 104.081 83.4108 96.621 88.3103 100.072Z" fill="#E85454"/>
<path d="M86.9529 104.213C87.0552 104.041 89.0726 103.462 89.491 101.615C89.9093 99.7675 88.3846 97.3417 84.889 96.9966C81.3933 96.6515 75.527 98.7322 76.4288 108.781C77.3306 118.829 86.5903 114.505 87.1946 111.298C87.5157 108.94 87.4338 106.538 86.9529 104.213V104.213Z" fill="#653200"/>
<path d="M86.9529 104.213C86.9529 104.213 87.5386 107.644 88.8123 109.126C90.086 110.608 91.1179 113.287 89.556 115.338C87.9941 117.388 89.556 118.494 91.7594 120.413C93.9628 122.331 92.6054 130.339 84.6379 128.38C76.6705 126.421 72.9145 121.174 72.9145 121.174C72.9145 121.174 74.9599 105.523 77.1353 101.889" fill="#653200"/>
<path d="M92.9866 117.723C92.9866 117.723 94.7902 124.32 96.5938 124.523C98.3974 124.726 101.131 121.813 103.055 118.007C103.744 117.929 104.44 118.006 105.101 118.233C105.762 118.461 106.372 118.834 106.895 119.33C107.418 119.826 107.842 120.433 108.141 121.116C108.44 121.798 108.608 122.54 108.633 123.295C108.633 123.295 102.284 137.343 93.0238 133.912" fill="#88D3D8"/>
<path d="M105.808 110.728C106.554 108.639 105.824 106.378 104.179 105.678C102.533 104.978 100.594 106.104 99.8484 108.193C99.1027 110.282 99.8323 112.543 101.478 113.244C103.124 113.944 105.062 112.818 105.808 110.728Z" fill="#1784AA"/>
<path d="M100.666 108.415L101.661 108.08L102.079 109.623L105.333 108.354L105.482 109.44L101.521 111.024L100.666 108.415Z" fill="#E4F5FD"/>
<path d="M59.7315 168.036C54.0418 160.292 51.4293 150.375 51.5409 140.459C51.6183 132.418 54.5125 124.715 59.6292 118.931C64.3242 113.673 71.4084 111.085 77.6932 114.647C82.9087 117.601 85.4375 123.275 87.2504 129.091C89.4259 136.054 90.1603 144.976 97.9326 147.127C100.945 147.96 104.115 147.391 107.23 147.127C112.64 146.721 118.386 148.64 120.022 154.933C123.034 166.199 109.154 175.821 101.354 179.455C94.5989 182.488 87.1595 183.209 80.0207 181.523C72.882 179.838 66.3805 175.825 61.377 170.016C60.7882 169.386 60.2397 168.727 59.7315 168.036Z" fill="#FFDE47"/>
<path d="M119.706 155.105C114.184 166.006 96.2127 170.919 86.4137 170.33C77.5165 169.833 71.8919 163.905 72.4683 154.09C72.803 148.691 74.3277 143.311 73.9279 137.85C73.1749 128.594 65.1237 120.991 56.9052 122.798C53.384 128.119 51.4641 134.503 51.4108 141.068C51.2992 150.984 53.9023 160.891 59.6013 168.645C60.1096 169.322 60.6395 169.999 61.1911 170.675C66.1946 176.485 72.696 180.498 79.8348 182.183C86.9736 183.869 94.4129 183.148 101.168 180.115C108.977 176.481 122.848 166.859 119.836 155.593C119.818 155.42 119.752 155.268 119.706 155.105Z" fill="#FCC62D"/>
<path d="M37.3817 34.4827L38.0883 77.0214C38.0971 77.4722 38.2099 77.9133 38.4165 78.3039C38.623 78.6945 38.9164 79.0218 39.2696 79.2556C39.6228 79.4894 40.0244 79.6221 40.437 79.6414C40.8497 79.6607 41.2602 79.566 41.6304 79.366L74.7368 61.3599C75.2856 61.0606 75.7455 60.5976 76.0631 60.0245C76.3807 59.4514 76.543 58.7918 76.5311 58.1221L75.8245 15.5631C75.8211 15.0704 75.7025 14.5868 75.4799 14.1581C75.2573 13.7294 74.9381 13.37 74.5526 13.1138C74.1671 12.8575 73.728 12.7131 73.277 12.6941C72.826 12.6752 72.378 12.7823 71.9756 13.0053L39.176 31.2753C38.6314 31.5723 38.1744 32.0306 37.8571 32.5978C37.5398 33.165 37.3751 33.8182 37.3817 34.4827Z" fill="#68E1FD"/>
<path opacity="0.3" d="M70.7856 40.928C64.4822 42.8768 66.667 50.5603 62.1394 54.6203C56.6263 59.5634 54.5438 45.4853 47.7757 46.4191C39.6594 47.4341 38.0883 77.0721 38.0883 77.0721C39.3712 80.4318 41.6304 79.4168 41.6304 79.4168L76.5775 60.4058L76.3079 44.0339C74.839 42.1257 73.0261 40.6844 70.7856 40.928Z" fill="#053855"/>
<defs>
<linearGradient id="paint0_linear_56_218" x1="117.856" y1="178.562" x2="137.721" y2="149.594" gradientUnits="userSpaceOnUse">
<stop stop-color="#FF8E31"/>
<stop offset="1" stop-color="#ED6B21"/>
</linearGradient>
<linearGradient id="paint1_linear_56_218" x1="8494.16" y1="11381.2" x2="9410.55" y2="9800.4" gradientUnits="userSpaceOnUse">
<stop stop-color="#FF8E31"/>
<stop offset="1" stop-color="#ED6B21"/>
</linearGradient>
</defs>
</svg>
