<svg width="274" height="264" viewBox="0 0 274 264" fill="none" xmlns="http://www.w3.org/2000/svg">
<path opacity="0.18" d="M136.754 0.99166C101.127 5.71127 67.4815 27.2291 50.2804 58.9754C45.347 68.1104 41.6387 77.8867 36.3025 86.8162C30.3166 96.6829 22.3245 105.283 16.0262 114.961C-3.07421 144.068 -4.75156 182.886 9.12771 214.451C19.5865 238.255 39.5503 252.118 65.6232 252.216C78.4582 252.257 90.4793 247.735 103.068 247.118C120.441 246.296 138.687 251.846 155.378 255.941C174.026 260.513 193.053 264.985 212.227 263.81C231.401 262.634 251.061 255.036 262.498 239.611C273.82 224.351 275.49 203.836 272.834 185.023C270.178 166.211 263.641 148.163 260.147 129.506C256.118 107.923 256.036 85.4101 248.389 64.8379C236.664 33.3053 207.211 9.86353 174.437 2.52101C162.065 -0.208841 149.307 -0.726614 136.754 0.99166V0.99166Z" fill="#68E1FD"/>
<path d="M191.556 43.4846V211.343C191.554 215.229 190.01 218.956 187.263 221.704C184.516 224.453 180.79 225.999 176.904 226.003H104.243C100.355 226.003 96.6264 224.459 93.877 221.71C91.1276 218.96 89.5831 215.231 89.5831 211.343V43.4846C89.582 41.5594 89.9601 39.6528 90.6959 37.8737C91.4316 36.0946 92.5106 34.4778 93.8712 33.1157C95.2318 31.7536 96.8473 30.6728 98.6256 29.9351C100.404 29.1973 102.31 28.8171 104.235 28.816H176.904C178.829 28.8171 180.735 29.1973 182.514 29.9351C184.292 30.6728 185.908 31.7536 187.268 33.1157C188.629 34.4778 189.708 36.0946 190.443 37.8737C191.179 39.6528 191.557 41.5594 191.556 43.4846V43.4846Z" fill="#68E1FD"/>
<path d="M175.366 31.3074H105.765C97.9358 31.3074 91.5893 37.6539 91.5893 45.4826V209.033C91.5893 216.861 97.9358 223.208 105.765 223.208H175.366C183.195 223.208 189.542 216.861 189.542 209.033V45.4826C189.542 37.6539 183.195 31.3074 175.366 31.3074Z" fill="#473F47"/>
<path d="M186.878 47.0942V205.464C186.841 209.054 185.38 212.483 182.816 214.996C180.251 217.509 176.794 218.902 173.204 218.866H107.993C105.611 218.873 103.268 218.261 101.193 217.09C99.1129 215.942 97.3775 214.259 96.1661 212.215C94.9547 210.171 94.3114 207.84 94.3027 205.464V47.0942C94.3417 43.5018 95.8058 40.0719 98.373 37.5587C100.94 35.0454 104.4 33.6545 107.993 33.6918H119.011V35.6405C119.038 36.9192 119.442 38.1614 120.174 39.2105C120.906 40.2596 121.931 41.0687 123.122 41.5359C123.908 41.8454 124.744 42.0071 125.589 42.0128H155.88C157.607 42.013 159.265 41.3335 160.496 40.1212C161.727 38.9089 162.432 37.261 162.457 35.5336V33.6918H173.146C176.677 33.672 180.081 35.0048 182.66 37.4165C183.99 38.6534 185.051 40.151 185.777 41.8161C186.502 43.4811 186.877 45.2778 186.878 47.0942Z" fill="#68E1FD"/>
<path opacity="0.1" d="M186.878 122.238V168.48H146.852C146.303 168.481 145.759 168.374 145.252 168.164C144.745 167.955 144.284 167.647 143.896 167.259C143.508 166.871 143.2 166.41 142.99 165.903C142.781 165.396 142.674 164.852 142.675 164.303V164.303V126.423C142.672 125.874 142.779 125.33 142.987 124.823C143.196 124.315 143.502 123.854 143.89 123.465C144.277 123.076 144.737 122.767 145.244 122.557C145.751 122.346 146.294 122.238 146.843 122.238H186.878Z" fill="#020202"/>
<path d="M72.1517 161.573H101.974C102.23 161.573 102.483 161.624 102.72 161.722C102.956 161.82 103.171 161.963 103.352 162.144C103.533 162.325 103.677 162.54 103.774 162.776C103.872 163.013 103.923 163.266 103.923 163.522V163.522C103.923 164.039 103.717 164.535 103.352 164.9C102.987 165.266 102.491 165.471 101.974 165.471H72.1517C71.6349 165.471 71.1393 165.266 70.7738 164.9C70.4084 164.535 70.2031 164.039 70.2031 163.522V163.522C70.2031 163.266 70.2535 163.013 70.3514 162.776C70.4493 162.54 70.5929 162.325 70.7738 162.144C70.9548 161.963 71.1696 161.82 71.406 161.722C71.6424 161.624 71.8958 161.573 72.1517 161.573V161.573Z" fill="#473F47"/>
<path d="M76.9783 151.148L76.082 157.002L78.5487 157.29L81.2292 151.09L76.9783 151.148Z" fill="#FCBDBA"/>
<path d="M79.2805 156.426C79.1665 156.326 79.0645 156.213 78.9763 156.089C78.8542 156.163 78.718 156.211 78.5764 156.229C78.4349 156.248 78.291 156.236 78.1541 156.196L76.929 155.982C76.7101 155.959 76.4963 155.901 76.2958 155.81C76.2821 155.802 76.2665 155.797 76.2506 155.797C76.2347 155.797 76.2191 155.802 76.2054 155.81V155.81L75.934 156.319C75.4889 157.221 75.2289 158.202 75.1694 159.205C77.5038 159.755 79.9016 159.987 82.2981 159.896C82.4906 159.92 82.686 159.893 82.8649 159.818C83.0438 159.743 83.1999 159.623 83.3177 159.469C83.363 159.365 83.3863 159.253 83.3863 159.14C83.3863 159.026 83.363 158.914 83.3177 158.811C83.2063 158.572 83.0476 158.359 82.8511 158.183C82.6546 158.008 82.4245 157.875 82.1748 157.791C81.5417 157.52 80.8921 157.306 80.2672 156.969C79.9127 156.839 79.58 156.656 79.2805 156.426V156.426Z" fill="#68E1FD"/>
<path d="M93.4722 152.932L92.6993 158.802L95.166 159.041L97.7232 152.784L93.4722 152.932Z" fill="#FCBDBA"/>
<path opacity="0.1" d="M177.307 70.9964V89.1431C177.307 91.5288 176.359 93.8167 174.672 95.5037C172.985 97.1906 170.697 98.1383 168.312 98.1383H115.648L94.2698 122.69V62.0095H168.271C169.451 62.0019 170.622 62.2271 171.716 62.6723C172.81 63.1174 173.805 63.7738 174.645 64.6038C175.485 65.4339 176.153 66.4213 176.611 67.5098C177.07 68.5982 177.309 69.7662 177.315 70.9471L177.307 70.9964Z" fill="#020202"/>
<path d="M166.149 54.2804H106.579C101.615 54.2804 97.5916 58.304 97.5916 63.2674V81.4305C97.5916 86.3939 101.615 90.4175 106.579 90.4175H166.149C171.113 90.4175 175.136 86.3939 175.136 81.4305V63.2674C175.136 58.304 171.113 54.2804 166.149 54.2804Z" fill="white"/>
<path opacity="0.1" d="M108.042 85.9282C107.739 85.9523 107.435 85.9044 107.154 85.7884C106.935 85.6305 106.75 85.4308 106.609 85.2007C106.467 84.9706 106.373 84.7148 106.332 84.4481C104.86 79.9176 101.826 75.494 97.2873 74.1374C96.1033 78.9721 96.1937 84.0041 96.2842 88.9951C96.2842 90.3271 96.4322 91.8482 97.4928 92.6376C98.1914 93.0649 99.0016 93.2739 99.8197 93.2378C104.977 93.4251 110.1 92.3259 114.727 90.0393C116.125 89.3486 118.986 86.6435 116.322 85.7637C115.5 85.4924 113.732 85.9035 112.877 85.9117L108.042 85.9282Z" fill="#020202"/>
<path d="M173.706 60.6363C177.284 60.6363 180.185 57.7355 180.185 54.1571C180.185 50.5788 177.284 47.6779 173.706 47.6779C170.127 47.6779 167.226 50.5788 167.226 54.1571C167.226 57.7355 170.127 60.6363 173.706 60.6363Z" fill="#68E1FD"/>
<path opacity="0.28" d="M173.706 60.6363C177.284 60.6363 180.185 57.7355 180.185 54.1571C180.185 50.5788 177.284 47.6779 173.706 47.6779C170.127 47.6779 167.226 50.5788 167.226 54.1571C167.226 57.7355 170.127 60.6363 173.706 60.6363Z" fill="#020202"/>
<path d="M114.686 65.8246H156.792C157.265 65.8246 157.719 66.0126 158.054 66.3472C158.388 66.6818 158.576 67.1357 158.576 67.6089V67.6089C158.576 68.0821 158.388 68.5359 158.054 68.8705C157.719 69.2051 157.265 69.3931 156.792 69.3931H114.686C114.213 69.3931 113.759 69.2051 113.424 68.8705C113.089 68.5359 112.901 68.0821 112.901 67.6089V67.6089C112.901 67.1357 113.089 66.6818 113.424 66.3472C113.759 66.0126 114.213 65.8246 114.686 65.8246Z" fill="#68E1FD"/>
<path d="M156.792 75.3378H114.686C113.7 75.3378 112.901 76.1366 112.901 77.122C112.901 78.1074 113.7 78.9063 114.686 78.9063H156.792C157.778 78.9063 158.576 78.1074 158.576 77.122C158.576 76.1366 157.778 75.3378 156.792 75.3378Z" fill="#68E1FD"/>
<path d="M76.7645 110.34L80.4234 130.715L76.7645 152.636L82.701 153.088L91.3508 128.405L88.4155 108.844L76.7645 110.34Z" fill="#473F47"/>
<path d="M97.2545 108.844L103.849 135.961L98.5125 154.642L93.242 154.371L93.9738 138.436L84.6744 112.684L97.2545 108.844Z" fill="#473F47"/>
<path d="M115.442 86.3557C116.232 85.8866 117.081 85.5244 117.967 85.2786C118.105 85.2188 118.255 85.1928 118.405 85.2028C118.555 85.2128 118.701 85.2585 118.83 85.3361C118.968 85.4639 119.058 85.6352 119.085 85.8213C119.225 86.4188 119.176 87.045 118.945 87.6137C119.943 88.1622 120.989 88.6191 122.069 88.9786C122.295 89.0166 122.511 89.1013 122.702 89.2273C122.893 89.3533 123.056 89.5179 123.179 89.7104C123.247 89.9111 123.253 90.1275 123.196 90.3314C123.138 90.5353 123.021 90.7172 122.859 90.8533C122.53 91.1174 122.14 91.2929 121.724 91.3631C119.011 91.9962 114.595 91.3631 113.954 88.1235C113.814 87.4164 114.069 87.3013 114.636 86.8819C114.9 86.6928 115.163 86.5201 115.442 86.3557Z" fill="#FCBDBA"/>
<path d="M95.0262 61.327C95.6493 62.5595 96.0474 63.8932 96.202 65.2655C96.2732 65.952 96.1643 66.6451 95.886 67.2766C95.6077 67.9081 95.1697 68.4562 94.6151 68.8669C94.28 69.0259 93.9653 69.2247 93.6778 69.4589C92.6911 70.4785 93.8258 72.3285 93.2502 73.6441C93.0273 74.0768 92.6505 74.4104 92.194 74.5793C91.7375 74.7482 91.2344 74.7402 90.7835 74.5567C90.3375 74.3549 89.9421 74.056 89.6264 73.6819C89.3106 73.3078 89.0823 72.8679 88.9581 72.3943C88.7024 71.4376 88.5889 70.4486 88.621 69.4589L88.5224 63.5635C88.3836 62.2539 88.5876 60.9307 89.1144 59.7237C89.4686 59.1079 89.9865 58.6021 90.6105 58.2625C91.2346 57.9229 91.9405 57.7627 92.65 57.7997C94.1135 58.0135 94.5329 60.1677 95.0262 61.327Z" fill="#FCBDBA"/>
<path d="M115.582 90.7382C115.582 90.7382 104.285 100.827 103.479 100.827C102.673 100.827 97.6655 94.4876 97.6655 94.4876L97.2544 108.844C95.857 109.663 94.4035 110.383 92.9048 110.998C90.4381 112.001 87.3712 112.93 84.6825 112.642C79.19 112.141 76.7726 110.299 76.7726 110.299L80.152 76.4807C80.152 76.4807 86.549 71.8844 88.7361 72.5833C90.2997 72.863 91.9004 72.863 93.4639 72.5833C96.6213 72.164 99.8527 76.4807 99.8527 76.4807L104.046 90.2778L113.913 86.7751C114.56 87.1888 115.066 87.7893 115.364 88.497C115.662 89.2047 115.738 89.9863 115.582 90.7382V90.7382Z" fill="white"/>
<path d="M96.276 54.9794C96.3502 54.2372 96.1767 53.4913 95.7827 52.858C95.018 51.7974 93.4722 51.6987 92.1977 51.9865C91.3222 52.2284 90.4737 52.559 89.6653 52.9731C89.0761 53.2198 88.4311 53.3022 87.7988 53.2116C86.1185 53.1889 84.4905 53.7961 83.2354 54.9136C81.5252 56.5581 81.1141 58.9508 80.9414 61.2037C80.7523 63.7526 81.9034 65.8575 83.5643 67.7815C85.0032 69.4753 87.6015 71.1362 89.4679 68.9984C90.294 67.9082 90.6707 66.5428 90.5204 65.1833C90.0699 65.1472 89.6427 64.9683 89.3011 64.6725C88.9594 64.3767 88.7212 63.9795 88.621 63.5388C88.5526 63.265 88.5634 62.9774 88.6522 62.7096C88.741 62.4417 88.9042 62.2046 89.1226 62.0259C89.2569 61.9437 89.406 61.8889 89.5616 61.8647C89.7171 61.8405 89.8759 61.8473 90.0288 61.8848C90.1817 61.9222 90.3256 61.9896 90.4523 62.083C90.579 62.1763 90.686 62.2939 90.7671 62.4288C90.8157 62.5145 90.8544 62.6056 90.8822 62.7001C91.1507 62.1588 91.3444 61.5834 91.4577 60.9899C91.6797 60.4226 92.3951 59.9292 92.8637 60.3074C93.1351 60.5294 93.2995 60.9981 93.6449 60.9241C93.7599 60.8829 93.86 60.8085 93.9326 60.7103C94.6139 60.0537 95.1906 59.2967 95.6429 58.4656C96.0537 57.4805 96.2687 56.4249 96.276 55.3576C96.2678 55.2507 96.276 55.1109 96.276 54.9794Z" fill="#FC682D"/>
<path d="M74.0758 53.6967C72.8882 53.5512 71.6846 53.7735 70.6274 54.3337C69.5702 54.8939 68.7103 55.765 68.1639 56.8294C66.8566 59.5017 67.7939 62.6508 68.0077 65.6191C68.2028 66.6487 68.0422 67.714 67.5521 68.6403C67.0621 69.5667 66.2717 70.2989 65.3108 70.7169C63.2141 71.9749 60.8132 72.8218 59.1358 74.606C57.8182 76.0742 57.0408 77.9479 56.9322 79.9177C56.8236 80.7411 56.9669 81.5782 57.3434 82.3186C57.7122 82.8617 58.1913 83.3212 58.7494 83.667C60.2938 84.7914 62.0472 85.596 63.9067 86.0337C65.7662 86.4714 67.6944 86.5334 69.5782 86.2159C73.3111 85.4513 76.674 82.557 77.4634 78.8159C78.2856 74.8692 76.2876 70.9471 75.5311 66.9922C75.3882 66.5288 75.3414 66.041 75.3938 65.5589C75.4461 65.0767 75.5963 64.6104 75.8353 64.1884C76.4602 63.3661 77.6278 63.1524 78.524 62.6179C83.441 59.7319 77.6771 54.2065 74.0758 53.6967Z" fill="#FC682D"/>
<path d="M81.0647 57.5365H80.9907C79.9599 57.5365 79.1243 58.3721 79.1243 59.403V59.477C79.1243 60.5078 79.9599 61.3434 80.9907 61.3434H81.0647C82.0955 61.3434 82.9312 60.5078 82.9312 59.477V59.403C82.9312 58.3721 82.0955 57.5365 81.0647 57.5365Z" fill="#68E1FD"/>
<path d="M95.8813 158.169C95.7647 158.069 95.6599 157.956 95.5689 157.832C95.4477 157.909 95.3122 157.959 95.1706 157.98C95.0291 158.001 94.8848 157.993 94.7466 157.956L93.5133 157.775C93.2944 157.751 93.0806 157.693 92.8802 157.602H92.7897L92.5348 158.12C92.1087 159.031 91.8683 160.018 91.8277 161.023C94.1741 161.525 96.5779 161.704 98.9729 161.557C99.1645 161.58 99.3587 161.55 99.5352 161.472C99.7117 161.394 99.8639 161.27 99.976 161.113C100.021 161.009 100.045 160.897 100.045 160.784C100.045 160.671 100.021 160.559 99.976 160.455C99.8582 160.221 99.6951 160.012 99.4961 159.842C99.2971 159.671 99.0661 159.541 98.8167 159.46C98.1753 159.205 97.5175 159 96.8926 158.704C96.533 158.572 96.1928 158.392 95.8813 158.169Z" fill="#68E1FD"/>
<path d="M96.4076 165.446H92.6253L89.5995 173.611H73.9771L77.0029 165.446H73.2207L46.6626 237.219H50.4449L53.076 230.123H68.6984L66.0673 237.219H69.8495L72.4807 230.123H72.5875V229.819L96.2103 165.997V237.219H100.001V165.446H96.4076ZM88.5635 176.374L84.6332 187.063H69.0108L72.9576 176.374H88.5635ZM64.0446 200.465L67.9831 189.825H83.6054L79.667 200.465H64.0446ZM78.6227 203.252L74.6925 213.892H59.0701L63.0086 203.252H78.6227ZM54.112 227.352L58.0423 216.663H73.6647L69.718 227.352H54.112Z" fill="#68E1FD"/>
<path d="M96.4076 165.446H92.6253L89.5995 173.611H73.9771L77.0029 165.446H73.2207L46.6626 237.219H50.4449L53.076 230.123H68.6984L66.0673 237.219H69.8495L72.4807 230.123H72.5875V229.819L96.2103 165.997V237.219H100.001V165.446H96.4076ZM88.5635 176.374L84.6332 187.063H69.0108L72.9576 176.374H88.5635ZM64.0446 200.465L67.9831 189.825H83.6054L79.667 200.465H64.0446ZM78.6227 203.252L74.6925 213.892H59.0701L63.0086 203.252H78.6227ZM54.112 227.352L58.0423 216.663H73.6647L69.718 227.352H54.112Z" fill="url(#paint0_linear_53_158)"/>
<path d="M203.783 117.263H146.851C144.545 117.263 142.675 119.133 142.675 121.44V159.321C142.675 161.627 144.545 163.497 146.851 163.497H203.783C206.09 163.497 207.96 161.627 207.96 159.321V121.44C207.96 119.133 206.09 117.263 203.783 117.263Z" fill="white"/>
<path opacity="0.1" d="M134.633 122.69H109.3C108.042 122.69 107.023 123.71 107.023 124.968V124.976C107.023 126.234 108.042 127.254 109.3 127.254H134.633C135.891 127.254 136.911 126.234 136.911 124.976V124.968C136.911 123.71 135.891 122.69 134.633 122.69Z" fill="#020202"/>
<path opacity="0.1" d="M134.633 131.743H109.3C108.042 131.743 107.023 132.763 107.023 134.02V134.029C107.023 135.287 108.042 136.306 109.3 136.306H134.633C135.891 136.306 136.911 135.287 136.911 134.029V134.02C136.911 132.763 135.891 131.743 134.633 131.743Z" fill="#020202"/>
<path opacity="0.1" d="M134.633 140.796H109.3C108.042 140.796 107.023 141.815 107.023 143.073V143.081C107.023 144.339 108.042 145.359 109.3 145.359H134.633C135.891 145.359 136.911 144.339 136.911 143.081V143.073C136.911 141.815 135.891 140.796 134.633 140.796Z" fill="#020202"/>
<path d="M197.978 157.109H152.656V123.652H153.479V156.287H197.978V157.109Z" fill="#68E1FD"/>
<path d="M153.191 145.088L152.763 144.381L164.192 137.359L180.99 139.957L195.832 131.389L196.243 132.096L181.147 140.812L181.007 140.787L164.365 138.214L153.191 145.088Z" fill="#68E1FD"/>
<path d="M164.784 139.661C165.774 139.661 166.577 138.858 166.577 137.869C166.577 136.879 165.774 136.076 164.784 136.076C163.794 136.076 162.992 136.879 162.992 137.869C162.992 138.858 163.794 139.661 164.784 139.661Z" fill="#68E1FD"/>
<path d="M181.073 142.169C182.063 142.169 182.865 141.366 182.865 140.376C182.865 139.386 182.063 138.584 181.073 138.584C180.083 138.584 179.28 139.386 179.28 140.376C179.28 141.366 180.083 142.169 181.073 142.169Z" fill="#68E1FD"/>
<path d="M195.733 133.807C196.723 133.807 197.526 133.004 197.526 132.014C197.526 131.024 196.723 130.222 195.733 130.222C194.743 130.222 193.941 131.024 193.941 132.014C193.941 133.004 194.743 133.807 195.733 133.807Z" fill="#68E1FD"/>
<path opacity="0.28" d="M164.784 139.661C165.774 139.661 166.577 138.858 166.577 137.869C166.577 136.879 165.774 136.076 164.784 136.076C163.794 136.076 162.992 136.879 162.992 137.869C162.992 138.858 163.794 139.661 164.784 139.661Z" fill="#020202"/>
<path opacity="0.28" d="M181.073 142.169C182.063 142.169 182.865 141.366 182.865 140.376C182.865 139.386 182.063 138.584 181.073 138.584C180.083 138.584 179.28 139.386 179.28 140.376C179.28 141.366 180.083 142.169 181.073 142.169Z" fill="#020202"/>
<path opacity="0.28" d="M195.733 133.807C196.723 133.807 197.526 133.004 197.526 132.014C197.526 131.024 196.723 130.222 195.733 130.222C194.743 130.222 193.941 131.024 193.941 132.014C193.941 133.004 194.743 133.807 195.733 133.807Z" fill="#020202"/>
<defs>
<linearGradient id="paint0_linear_53_158" x1="124.791" y1="177.804" x2="5.33725" y2="251.419" gradientUnits="userSpaceOnUse">
<stop offset="0.01"/>
<stop offset="0.08" stop-opacity="0.69"/>
<stop offset="0.21" stop-opacity="0.32"/>
<stop offset="1" stop-opacity="0"/>
</linearGradient>
</defs>
</svg>
