<svg width="157" height="53" viewBox="0 0 157 53" fill="none" xmlns="http://www.w3.org/2000/svg">
<path d="M17.4514 24.9054C19.6857 27.282 22.137 29.4448 24.7734 31.3655C24.9364 31.5321 25.131 31.6645 25.3458 31.7549C25.5606 31.8452 25.7912 31.8918 26.0243 31.8918C26.2573 31.8918 26.488 31.8452 26.7028 31.7549C26.9176 31.6645 27.1122 31.5321 27.2751 31.3655C29.9104 29.4448 32.3604 27.282 34.5933 24.9054C36.8286 22.5618 38.9137 20.0793 40.836 17.4728C42.5865 15.1084 44.192 12.4275 44.192 9.39575C44.1916 7.53801 43.6405 5.72207 42.6083 4.17749C41.5761 2.6329 40.1092 1.42901 38.3929 0.71801C36.6766 0.00700564 34.788 -0.179193 32.9659 0.182951C31.1438 0.545095 29.47 1.43932 28.1561 2.75259L26.0243 4.88433L23.8925 2.75259C22.5789 1.43839 20.905 0.543324 19.0826 0.180651C17.2602 -0.182023 15.3712 0.00398765 13.6545 0.715149C11.9378 1.42631 10.4707 2.63067 9.43862 4.17585C8.40658 5.72103 7.85603 7.53761 7.85663 9.39575C7.85663 12.4275 9.46211 15.1084 11.2125 17.4728C13.1336 20.0793 15.2174 22.5617 17.4514 24.9054ZM21.9858 14.6165H24.6933V11.9089C24.6933 11.5564 24.8334 11.2184 25.0826 10.9691C25.3319 10.7199 25.6699 10.5799 26.0224 10.5799C26.3749 10.5799 26.7129 10.7199 26.9621 10.9691C27.2114 11.2184 27.3514 11.5564 27.3514 11.9089V14.6165H30.059C30.4115 14.6165 30.7495 14.7565 30.9988 15.0057C31.248 15.255 31.388 15.593 31.388 15.9455C31.388 16.298 31.248 16.636 30.9988 16.8853C30.7495 17.1345 30.4115 17.2745 30.059 17.2745H27.3514V19.9821C27.3514 20.3346 27.2114 20.6726 26.9621 20.9219C26.7129 21.1711 26.3749 21.3112 26.0224 21.3112C25.6699 21.3112 25.3319 21.1711 25.0826 20.9219C24.8334 20.6726 24.6933 20.3346 24.6933 19.9821V17.2745H21.9858C21.6333 17.2745 21.2952 17.1345 21.046 16.8853C20.7968 16.636 20.6567 16.298 20.6567 15.9455C20.6567 15.593 20.7968 15.255 21.046 15.0057C21.2952 14.7565 21.6333 14.6165 21.9858 14.6165Z" fill="#3987E5"/>
<path d="M40.7036 35.4662L25.0855 42.0221L23.6936 42.4244C23.1989 42.5676 22.6896 42.6543 22.1754 42.6828C21.0595 42.743 19.4342 42.7753 19.1522 42.7944H9.97989C9.83031 42.7941 9.68531 42.7429 9.56879 42.6491C9.45318 42.5793 9.35729 42.4812 9.29022 42.3641C9.22315 42.2469 9.18712 42.1145 9.18556 41.9795C9.19232 41.7607 9.28564 41.5535 9.44504 41.4035C9.60444 41.2535 9.81688 41.1728 10.0357 41.1793H20.4296C21.0687 41.1795 21.6857 40.9453 22.1636 40.5209C22.6415 40.0966 22.9472 39.5117 23.0226 38.8771C23.0356 38.7743 23.042 38.6708 23.0417 38.5673C23.0419 37.962 22.8319 37.3755 22.4476 36.9079C22.0633 36.4403 21.5285 36.1207 20.9347 36.0036C15.1321 34.8628 9.38818 33.4914 3.42991 33.8761C3.19792 33.8908 1.10708 33.9759 0 34.0773V49.5074L0.0572767 50.795C2.12619 51.0472 16.0963 52.7563 16.3249 52.7969C18.5409 53.1903 20.756 53.085 22.8677 51.8264C22.8777 51.82 22.888 51.8141 22.8986 51.8087C22.8986 51.8087 36.9125 43.9001 43.0529 39.8902C43.5779 39.5467 43.9556 39.0195 44.1118 38.4118C44.2681 37.8042 44.1915 37.1602 43.8973 36.606C43.6031 36.0519 43.1123 35.6278 42.5214 35.4169C41.9306 35.2061 41.2822 35.2237 40.7036 35.4663L40.7036 35.4662Z" fill="#3987E5"/>
<path d="M69.4 34L69.38 25.6L65.26 32.52H63.8L59.7 25.78V34H56.66V20H59.34L64.58 28.7L69.74 20H72.4L72.44 34H69.4ZM86.2216 23.24L81.3616 34.66C80.8682 35.9 80.2549 36.7733 79.5216 37.28C78.8016 37.7867 77.9282 38.04 76.9016 38.04C76.3416 38.04 75.7882 37.9533 75.2416 37.78C74.6949 37.6067 74.2482 37.3667 73.9016 37.06L75.0416 34.84C75.2816 35.0533 75.5549 35.22 75.8616 35.34C76.1816 35.46 76.4949 35.52 76.8016 35.52C77.2282 35.52 77.5749 35.4133 77.8416 35.2C78.1082 35 78.3482 34.66 78.5616 34.18L78.6016 34.08L73.9416 23.24H77.1616L80.1816 30.54L83.2216 23.24H86.2216ZM100.555 20V34H97.3147V28.26H90.9547V34H87.7147V20H90.9547V25.52H97.3147V20H100.555ZM114.187 28.66C114.187 28.7 114.167 28.98 114.127 29.5H105.987C106.134 30.1667 106.48 30.6933 107.027 31.08C107.574 31.4667 108.254 31.66 109.067 31.66C109.627 31.66 110.12 31.58 110.547 31.42C110.987 31.2467 111.394 30.98 111.767 30.62L113.427 32.42C112.414 33.58 110.934 34.16 108.987 34.16C107.774 34.16 106.7 33.9267 105.767 33.46C104.834 32.98 104.114 32.32 103.607 31.48C103.1 30.64 102.847 29.6867 102.847 28.62C102.847 27.5667 103.094 26.62 103.587 25.78C104.094 24.9267 104.78 24.2667 105.647 23.8C106.527 23.32 107.507 23.08 108.587 23.08C109.64 23.08 110.594 23.3067 111.447 23.76C112.3 24.2133 112.967 24.8667 113.447 25.72C113.94 26.56 114.187 27.54 114.187 28.66ZM108.607 25.44C107.9 25.44 107.307 25.64 106.827 26.04C106.347 26.44 106.054 26.9867 105.947 27.68H111.247C111.14 27 110.847 26.46 110.367 26.06C109.887 25.6467 109.3 25.44 108.607 25.44ZM120.311 23.08C121.978 23.08 123.258 23.48 124.151 24.28C125.045 25.0667 125.491 26.26 125.491 27.86V34H122.571V32.66C121.985 33.66 120.891 34.16 119.291 34.16C118.465 34.16 117.745 34.02 117.131 33.74C116.531 33.46 116.071 33.0733 115.751 32.58C115.431 32.0867 115.271 31.5267 115.271 30.9C115.271 29.9 115.645 29.1133 116.391 28.54C117.151 27.9667 118.318 27.68 119.891 27.68H122.371C122.371 27 122.165 26.48 121.751 26.12C121.338 25.7467 120.718 25.56 119.891 25.56C119.318 25.56 118.751 25.6533 118.191 25.84C117.645 26.0133 117.178 26.2533 116.791 26.56L115.671 24.38C116.258 23.9667 116.958 23.6467 117.771 23.42C118.598 23.1933 119.445 23.08 120.311 23.08ZM120.071 32.06C120.605 32.06 121.078 31.94 121.491 31.7C121.905 31.4467 122.198 31.08 122.371 30.6V29.5H120.231C118.951 29.5 118.311 29.92 118.311 30.76C118.311 31.16 118.465 31.48 118.771 31.72C119.091 31.9467 119.525 32.06 120.071 32.06ZM128.315 19.16H131.435V34H128.315V19.16ZM142.052 33.48C141.745 33.7067 141.365 33.88 140.912 34C140.472 34.1067 140.005 34.16 139.512 34.16C138.232 34.16 137.239 33.8333 136.532 33.18C135.839 32.5267 135.492 31.5667 135.492 30.3V25.88H133.832V23.48H135.492V20.86H138.612V23.48H141.292V25.88H138.612V30.26C138.612 30.7133 138.725 31.0667 138.952 31.32C139.192 31.56 139.525 31.68 139.952 31.68C140.445 31.68 140.865 31.5467 141.212 31.28L142.052 33.48ZM150.343 23.08C151.677 23.08 152.75 23.48 153.563 24.28C154.39 25.08 154.803 26.2667 154.803 27.84V34H151.683V28.32C151.683 27.4667 151.497 26.8333 151.123 26.42C150.75 25.9933 150.21 25.78 149.503 25.78C148.717 25.78 148.09 26.0267 147.623 26.52C147.157 27 146.923 27.72 146.923 28.68V34H143.803V19.16H146.923V24.36C147.337 23.9467 147.837 23.6333 148.423 23.42C149.01 23.1933 149.65 23.08 150.343 23.08Z" fill="#3987E5"/>
</svg>
