<svg width="57" height="68" viewBox="0 0 57 68" fill="none" xmlns="http://www.w3.org/2000/svg">
<path d="M22.3905 31.9541C25.2571 35.0034 28.4021 37.7783 31.7848 40.2426C31.9938 40.4563 32.2435 40.6261 32.5191 40.7421C32.7947 40.858 33.0906 40.9178 33.3896 40.9178C33.6886 40.9178 33.9846 40.858 34.2602 40.7421C34.5358 40.6261 34.7854 40.4563 34.9945 40.2426C38.3756 37.7782 41.519 35.0033 44.3838 31.9541C47.2518 28.9472 49.927 25.7621 52.3934 22.418C54.6392 19.3844 56.6991 15.9447 56.6991 12.0549C56.6987 9.67141 55.9916 7.34153 54.6673 5.3598C53.343 3.37806 51.4608 1.83345 49.2588 0.92122C47.0568 0.00898836 44.6337 -0.229908 42.2959 0.23473C39.9581 0.699368 37.8106 1.84668 36.1248 3.53163L33.3897 6.26669L30.6546 3.53163C28.9692 1.84547 26.8215 0.697095 24.4834 0.231778C22.1452 -0.233539 19.7215 0.00511623 17.519 0.91755C15.3165 1.82998 13.4341 3.37519 12.1099 5.35769C10.7858 7.34019 10.0794 9.67089 10.0802 12.0549C10.0802 15.9447 12.1401 19.3844 14.3859 22.418C16.8506 25.7621 19.5242 28.9471 22.3905 31.9541ZM28.2081 18.7532H31.682V15.2793C31.682 14.8271 31.8617 14.3934 32.1815 14.0736C32.5012 13.7538 32.935 13.5742 33.3872 13.5742C33.8394 13.5742 34.2731 13.7538 34.5929 14.0736C34.9127 14.3934 35.0924 14.8271 35.0924 15.2793V18.7532H38.5662C39.0185 18.7532 39.4522 18.9329 39.772 19.2527C40.0918 19.5724 40.2714 20.0061 40.2714 20.4584C40.2714 20.9106 40.0918 21.3443 39.772 21.6641C39.4522 21.9839 39.0185 22.1636 38.5662 22.1636H35.0924V25.6374C35.0924 26.0897 34.9127 26.5234 34.5929 26.8432C34.2731 27.163 33.8394 27.3426 33.3872 27.3426C32.935 27.3426 32.5012 27.163 32.1815 26.8432C31.8617 26.5234 31.682 26.0897 31.682 25.6374V22.1636H28.2081C27.7559 22.1636 27.3222 21.9839 27.0024 21.6641C26.6826 21.3443 26.503 20.9106 26.503 20.4584C26.503 20.0061 26.6826 19.5724 27.0024 19.2527C27.3222 18.9329 27.7559 18.7532 28.2081 18.7532Z" fill="white"/>
<path d="M52.2235 45.5039L32.1852 53.9152L30.3993 54.4313C29.7647 54.6151 29.1112 54.7263 28.4515 54.7629C27.0198 54.8401 24.9344 54.8816 24.5727 54.9061H12.8044C12.6125 54.9057 12.4264 54.8399 12.2769 54.7196C12.1286 54.6301 12.0056 54.5042 11.9195 54.3539C11.8335 54.2036 11.7873 54.0337 11.7852 53.8605C11.7939 53.5798 11.9137 53.314 12.1182 53.1215C12.3227 52.929 12.5952 52.8255 12.876 52.8338H26.2116C27.0316 52.8341 27.8232 52.5335 28.4363 51.9891C29.0495 51.4447 29.4417 50.6943 29.5384 49.88C29.5552 49.7482 29.5633 49.6154 29.5629 49.4825C29.5632 48.706 29.2937 47.9534 28.8006 47.3535C28.3076 46.7536 27.6215 46.3435 26.8596 46.1933C19.4148 44.7296 12.0452 42.9701 4.40063 43.4637C4.10299 43.4825 1.42041 43.5918 0 43.7218V63.5189L0.0734871 65.171C2.72795 65.4945 20.6519 67.6873 20.9451 67.7394C23.7883 68.2442 26.6303 68.1091 29.3397 66.4942C29.3525 66.486 29.3657 66.4784 29.3793 66.4716C29.3793 66.4716 47.3594 56.3246 55.2376 51.1799C55.9112 50.7392 56.3958 50.0627 56.5963 49.2831C56.7967 48.5035 56.6986 47.6772 56.3211 46.9662C55.9435 46.2553 55.3139 45.7112 54.5558 45.4406C53.7977 45.17 52.9658 45.1926 52.2235 45.5039L52.2235 45.5039Z" fill="white"/>
</svg>
