<svg width="195" height="177" viewBox="0 0 195 177" fill="none" xmlns="http://www.w3.org/2000/svg">
<path d="M148.662 70.3281C148.251 70.6109 147.847 70.8982 147.444 71.1943C143.559 82.4316 141.586 94.2409 141.607 106.131C141.606 107.506 141.636 108.878 141.697 110.246C142.126 120.507 144.083 130.646 147.504 140.329C147.685 140.839 147.868 141.346 148.055 141.852C148.189 142.214 148.326 142.58 148.472 142.939C148.618 143.12 148.762 143.298 148.906 143.475C148.916 143.483 148.925 143.496 148.935 143.504C148.994 143.576 149.052 143.647 149.104 143.718C149.353 144.022 149.605 144.324 149.854 144.628L149.657 144.651L149.163 144.705L149.166 144.708C149.332 144.697 149.501 144.684 149.668 144.667C149.729 144.665 149.796 144.663 149.858 144.655C149.913 144.651 149.972 144.646 150.027 144.642C157.16 144.124 164.453 143.435 170.819 140.219C177.482 136.85 182.951 129.973 182.319 122.536C182.234 121.562 182.042 120.6 181.747 119.668C181.623 119.279 181.481 118.897 181.331 118.517C180.412 116.189 178.889 114.147 176.92 112.602C174.951 111.056 172.605 110.063 170.125 109.725C167.645 109.387 165.119 109.715 162.808 110.676C160.496 111.638 158.483 113.197 156.974 115.195C158.575 107.445 166.766 103.155 174.196 100.435C181.631 97.7163 190.005 94.8456 193.545 87.7673C195.522 83.8281 195.37 79.3501 193.778 75.281C193.73 75.1595 193.679 75.0346 193.625 74.9119C191.636 70.1295 187.915 66.274 183.207 64.1156C174.392 60.2397 163.986 62.2219 155.327 66.4329C153.01 67.561 150.782 68.8631 148.662 70.3281V70.3281Z" fill="#F2F2F2"/>
<path d="M175.626 118.808C168.878 119.739 162.61 122.816 157.746 127.585C153.606 131.69 150.647 136.833 149.181 142.475C149.095 142.798 149.018 143.12 148.947 143.443C148.761 143.125 148.58 142.799 148.4 142.477C148.285 142.27 148.167 142.06 148.055 141.852C148.189 142.214 148.326 142.58 148.472 142.939C148.618 143.12 148.762 143.298 148.906 143.475C148.916 143.483 148.925 143.496 148.935 143.504C148.994 143.576 149.052 143.647 149.104 143.718C149.353 144.022 149.605 144.324 149.854 144.628L149.657 144.651L149.163 144.705L149.166 144.708C149.332 144.697 149.501 144.684 149.668 144.667C149.729 144.665 149.796 144.663 149.858 144.655C149.874 144.558 149.895 144.461 149.917 144.364C151.346 137.098 155.356 130.595 161.207 126.055C167.057 121.515 174.353 119.247 181.747 119.668C181.623 119.279 181.481 118.897 181.331 118.517C179.424 118.448 177.515 118.545 175.626 118.808Z" fill="white"/>
<path d="M151.825 91.4941C149.199 93.6546 146.902 96.1871 145.009 99.0114C144.023 100.516 143.18 102.109 142.49 103.77C142.163 104.541 141.868 105.333 141.607 106.131C141.606 107.506 141.636 108.878 141.697 110.246C141.902 109.2 142.163 108.166 142.478 107.148C142.641 106.59 142.825 106.041 143.022 105.498C145.235 99.4178 149.522 94.5014 154.667 90.6777C160.182 86.5859 166.464 83.4167 172.866 80.9815C179.426 78.4756 186.269 76.7833 193.241 75.9425C193.399 75.9225 193.542 75.8426 193.642 75.7194C193.742 75.5962 193.791 75.4391 193.778 75.281C193.777 75.1427 193.722 75.0102 193.625 74.9118C193.574 74.8659 193.512 74.8327 193.446 74.8148C193.379 74.797 193.31 74.7949 193.242 74.8089C192.382 74.9128 191.524 75.0202 190.667 75.1506C183.536 76.2144 176.565 78.1609 169.915 80.9454C163.494 83.6245 157.173 87.0077 151.825 91.4941Z" fill="white"/>
<path d="M185.714 56.8779C187.037 56.8779 188.111 55.8047 188.111 54.4808C188.111 53.1569 187.037 52.0837 185.714 52.0837C184.39 52.0837 183.316 53.1569 183.316 54.4808C183.316 55.8047 184.39 56.8779 185.714 56.8779Z" fill="#F2F2F2"/>
<path d="M138.807 176.326H79.706C76.1628 176.322 72.7659 174.913 70.2605 172.407C67.755 169.902 66.3457 166.505 66.3417 162.962V13.3644C66.3457 9.82115 67.755 6.4242 70.2605 3.91877C72.7659 1.41333 76.1628 0.00401425 79.706 0H138.807C142.35 0.00401356 145.747 1.41333 148.252 3.91877C150.758 6.4242 152.167 9.82115 152.171 13.3644V162.962C152.167 166.505 150.758 169.902 148.252 172.407C145.747 174.913 142.35 176.322 138.807 176.326V176.326Z" fill="#3F3D56"/>
<path d="M138.145 4.14886H131.567C130.98 4.14944 130.417 4.38294 130.002 4.7981C129.586 5.21326 129.353 5.77618 129.352 6.36331C129.351 7.56371 128.874 8.71462 128.025 9.56343C127.176 10.4122 126.025 10.8896 124.825 10.8907H92.6506C91.4502 10.8896 90.2993 10.4122 89.4505 9.56343C88.6017 8.71462 88.1243 7.56371 88.1232 6.36331C88.1226 5.77618 87.8891 5.21326 87.4739 4.7981C87.0588 4.38294 86.4959 4.14944 85.9087 4.14886H80.1081C77.4209 4.15229 74.8447 5.22131 72.9446 7.12146C71.0444 9.02162 69.9754 11.5978 69.972 14.285V162.819C69.9754 165.506 71.0444 168.082 72.9446 169.983C74.8447 171.883 77.4209 172.952 80.1081 172.955H138.145C140.833 172.952 143.409 171.883 145.309 169.983C147.209 168.082 148.278 165.506 148.281 162.819V14.285C148.278 11.5978 147.209 9.02162 145.309 7.12146C143.409 5.22131 140.833 4.15229 138.145 4.14886V4.14886Z" fill="white"/>
<path d="M116.841 7.13084H98.6898C98.5179 7.13084 98.353 7.06254 98.2314 6.94096C98.1098 6.81939 98.0415 6.65451 98.0415 6.48258C98.0415 6.31065 98.1098 6.14576 98.2314 6.02419C98.353 5.90262 98.5179 5.83432 98.6898 5.83432H116.841C117.013 5.83432 117.178 5.90262 117.299 6.02419C117.421 6.14576 117.489 6.31065 117.489 6.48258C117.489 6.65451 117.421 6.81939 117.299 6.94096C117.178 7.06254 117.013 7.13084 116.841 7.13084Z" fill="white"/>
<path d="M119.693 7.0012C119.98 7.0012 120.212 6.76901 120.212 6.4826C120.212 6.19618 119.98 5.96399 119.693 5.96399C119.407 5.96399 119.175 6.19618 119.175 6.4826C119.175 6.76901 119.407 7.0012 119.693 7.0012Z" fill="white"/>
<path d="M152.69 58.9914C152.38 58.9911 152.084 58.868 151.865 58.6493C151.646 58.4305 151.523 58.1339 151.523 57.8246V35.0059C151.523 34.6964 151.646 34.3996 151.865 34.1808C152.083 33.962 152.38 33.8391 152.69 33.8391C152.999 33.8391 153.296 33.962 153.515 34.1808C153.734 34.3996 153.857 34.6964 153.857 35.0059V57.8246C153.856 58.1339 153.733 58.4305 153.514 58.6493C153.296 58.868 152.999 58.9911 152.69 58.9914V58.9914Z" fill="#3F3D56"/>
<path d="M66.3417 42.1367C66.0324 42.1364 65.7358 42.0133 65.517 41.7946C65.2983 41.5758 65.1752 41.2792 65.1749 40.9699V35.7838C65.1749 35.4743 65.2978 35.1775 65.5166 34.9587C65.7355 34.7399 66.0323 34.6169 66.3417 34.6169C66.6512 34.6169 66.948 34.7399 67.1668 34.9587C67.3857 35.1775 67.5086 35.4743 67.5086 35.7838V40.9699C67.5082 41.2792 67.3852 41.5758 67.1665 41.7946C66.9477 42.0133 66.6511 42.1364 66.3417 42.1367Z" fill="#3F3D56"/>
<path d="M66.3417 51.731C66.0324 51.7306 65.7358 51.6076 65.517 51.3888C65.2983 51.1701 65.1752 50.8735 65.1749 50.5641V45.378C65.1749 45.0686 65.2978 44.7718 65.5166 44.5529C65.7355 44.3341 66.0323 44.2112 66.3417 44.2112C66.6512 44.2112 66.948 44.3341 67.1668 44.5529C67.3857 44.7718 67.5086 45.0686 67.5086 45.378V50.5641C67.5082 50.8735 67.3852 51.1701 67.1665 51.3888C66.9477 51.6076 66.6511 51.7306 66.3417 51.731V51.731Z" fill="#3F3D56"/>
<path d="M173.214 176.845H0.259303C0.190532 176.845 0.124577 176.817 0.0759479 176.769C0.0273191 176.72 0 176.654 0 176.585C0 176.517 0.0273191 176.451 0.0759479 176.402C0.124577 176.353 0.190532 176.326 0.259303 176.326H173.214C173.283 176.326 173.349 176.353 173.398 176.402C173.446 176.451 173.474 176.517 173.474 176.585C173.474 176.654 173.446 176.72 173.398 176.769C173.349 176.817 173.283 176.845 173.214 176.845Z" fill="#3F3D56"/>
<path d="M16.2451 173.707H19.4241L20.9364 161.445H16.2446L16.2451 173.707Z" fill="#FFB6B6"/>
<path d="M15.4342 172.669L21.6948 172.669H21.695C22.7532 172.669 23.7679 173.089 24.5161 173.837C25.2643 174.585 25.6847 175.6 25.6848 176.658V176.788L15.4343 176.788L15.4342 172.669Z" fill="#2F2E41"/>
<path d="M45.5463 173.707H48.7253L50.2376 161.445H45.5458L45.5463 173.707Z" fill="#FFB6B6"/>
<path d="M44.7354 172.669L50.996 172.669H50.9963C52.0544 172.669 53.0692 173.089 53.8174 173.837C54.5656 174.585 54.986 175.6 54.986 176.658V176.788L44.7356 176.788L44.7354 172.669Z" fill="#2F2E41"/>
<path d="M41.7079 75.1979L43.7823 88.4223L24.0753 88.6816L26.6683 75.9758L41.7079 75.1979Z" fill="#FFB6B6"/>
<path d="M44.5603 85.0514L49.487 101.906L50.265 171.167H44.9492L32.2434 115.519L20.5748 169.714H15.3887L19.0189 108.778C19.0189 108.778 17.2038 93.738 23.4271 89.3299V85.4618L44.5603 85.0514Z" fill="#2F2E41"/>
<path d="M16.2874 98.2218C16.8361 98.0722 17.3454 97.8042 17.7793 97.4366C18.2132 97.0689 18.5612 96.6106 18.7989 96.0939C19.0365 95.5772 19.158 95.0147 19.1547 94.446C19.1514 93.8773 19.0235 93.3162 18.7799 92.8023L27.1635 65.4695L20.997 64.2471L13.3293 91.039C12.4931 91.5054 11.857 92.2624 11.5416 93.1665C11.2262 94.0705 11.2534 95.0589 11.618 95.9442C11.9826 96.8296 12.6594 97.5505 13.52 97.9702C14.3806 98.39 15.3652 98.4795 16.2874 98.2218V98.2218Z" fill="#FFB6B6"/>
<path d="M39.6781 47.924C43.1515 44.4506 43.1515 38.8191 39.6781 35.3457C36.2047 31.8724 30.5733 31.8724 27.0999 35.3457C23.6265 38.8191 23.6265 44.4506 27.0999 47.924C30.5733 51.3973 36.2047 51.3973 39.6781 47.924Z" fill="#FFB6B6"/>
<path d="M27.0293 82.3285C26.6801 82.2591 26.3633 82.0771 26.1275 81.8104C25.8917 81.5437 25.7499 81.2069 25.7239 80.8519C25.5283 78.1738 24.5609 73.5195 22.8488 67.0178C22.4629 65.5483 22.3921 64.0138 22.641 62.5151C22.8899 61.0163 23.4529 59.5871 24.293 58.3212C25.1331 57.0553 26.2314 55.9814 27.5157 55.1698C28.8001 54.3582 30.2415 53.8273 31.7455 53.612V53.612C33.1712 53.4057 34.6238 53.4873 36.0173 53.8522C37.4109 54.2171 38.7171 54.8578 39.8587 55.7364C41.0003 56.615 41.9541 57.7136 42.6637 58.9673C43.3732 60.221 43.8242 61.6042 43.9898 63.0352C44.8369 70.4957 43.2389 77.9906 42.5126 80.8664C42.4245 81.2126 42.2254 81.5204 41.9457 81.7427C41.666 81.965 41.3212 82.0894 40.964 82.097L27.3795 82.3593C27.262 82.3618 27.1446 82.3514 27.0293 82.3285V82.3285Z" fill="#E4E4E4"/>
<path d="M65.2972 58.4925C65.2156 58.6755 65.1486 58.8647 65.0967 59.0582L48.0927 64.8363L44.807 61.966L39.827 66.3584L45.1498 72.0051C45.5799 72.4613 46.1462 72.7657 46.764 72.8726C47.3817 72.9795 48.0174 72.8831 48.5757 72.5979L66.771 63.3038C67.429 63.7074 68.1943 63.9011 68.9651 63.8592C69.7359 63.8173 70.4756 63.5417 71.086 63.069C71.6963 62.5964 72.1483 61.9492 72.3818 61.2134C72.6153 60.4777 72.6192 59.6883 72.3932 58.9502C72.1671 58.2121 71.7216 57.5604 71.1161 57.0816C70.5106 56.6029 69.7736 56.3199 69.0033 56.2702C68.233 56.2205 67.4658 56.4065 66.8037 56.8035C66.1417 57.2005 65.6162 57.7896 65.2972 58.4925H65.2972Z" fill="#FFB6B6"/>
<path d="M47.5 65.1522L41.3013 70.5663C41.1249 70.7203 40.9174 70.8345 40.6929 70.9011C40.4684 70.9678 40.2322 70.9852 40.0004 70.9523C39.7685 70.9194 39.5465 70.8369 39.3494 70.7105C39.1523 70.584 38.9848 70.4166 38.8582 70.2195L34.4244 63.3154C33.6415 62.4085 33.25 61.2282 33.3359 60.0332C33.4219 58.8382 33.9781 57.726 34.8828 56.9405C35.7875 56.155 36.9667 55.7603 38.1619 55.8429C39.3572 55.9255 40.4709 56.4787 41.2589 57.3812L47.485 62.6847C47.6633 62.8366 47.8067 63.0251 47.9054 63.2374C48.0042 63.4497 48.0561 63.6808 48.0575 63.915C48.0589 64.1492 48.0099 64.3809 47.9137 64.5944C47.8174 64.8079 47.6763 64.9981 47.5 65.1522V65.1522Z" fill="#E4E4E4"/>
<path d="M26.1842 72.4678L18.5239 69.4585C18.306 69.3728 18.109 69.2412 17.9465 69.0726C17.784 68.904 17.6597 68.7024 17.5822 68.4814C17.5046 68.2605 17.4756 68.0254 17.4971 67.7922C17.5186 67.559 17.5901 67.3332 17.7067 67.1301L21.7938 60.0152C22.2379 58.9022 23.1054 58.0107 24.2059 57.5364C25.3064 57.0621 26.5501 57.0437 27.6642 57.4851C28.7783 57.9266 29.6719 58.7919 30.1488 59.8913C30.6258 60.9907 30.6472 62.2343 30.2085 63.3495L28.3676 71.3184C28.3149 71.5465 28.2135 71.7606 28.0706 71.9461C27.9276 72.1315 27.7463 72.284 27.5391 72.3931C27.3319 72.5022 27.1036 72.5653 26.8698 72.5782C26.636 72.5911 26.4021 72.5535 26.1842 72.4679V72.4678Z" fill="#E4E4E4"/>
<path d="M37.5013 39.6426C39.4395 41.6218 42.071 43.783 44.6852 42.6026C46.4017 41.8276 47.2695 39.9343 47.0053 38.0696C46.5303 34.7162 43.791 32.7383 41.1197 31.1089C37.6469 28.9907 33.7855 27.0878 29.7236 27.3065C25.6616 27.5253 21.5023 30.5916 21.4216 34.6586C21.3566 37.9292 23.8157 41.1488 22.7621 44.2457C21.7017 47.3625 17.7676 48.3339 14.4758 48.276C11.1841 48.2181 7.59098 47.6969 4.85429 49.5271C1.36314 51.8618 1.05891 57.2115 3.1912 60.8298C5.32349 64.4482 9.18473 66.6621 13.0062 68.4044C18.0694 70.7128 23.684 72.5115 29.1421 71.4281C34.6002 70.3447 39.638 65.5145 39.219 59.9657C39.042 57.6219 37.9599 55.4563 36.9168 53.3499C35.8736 51.2436 34.8293 49.0503 34.7377 46.7016C34.6614 44.7443 35.4222 42.6403 36.9392 41.4842C37.2133 41.2835 37.4166 41.0012 37.5202 40.6777C37.6237 40.3542 37.6221 40.0062 37.5155 39.6838L37.5013 39.6426Z" fill="#2F2E41"/>
<path d="M146.286 77.7608C143.481 79.4431 138.483 81.551 133.376 79.3847L130.075 77.9843L136.69 70.5682C131.411 64.7473 128.49 57.1679 128.498 49.3096C128.507 41.4512 131.443 33.8779 136.734 28.0678C142.025 22.2577 149.291 18.6279 157.115 17.8868C164.938 17.1458 172.757 19.3467 179.045 24.0599C185.333 28.7732 189.639 35.6605 191.122 43.3776C192.606 51.0947 191.16 59.0876 187.068 65.7962C182.975 72.5049 176.53 77.4477 168.989 79.66C161.449 81.8722 153.354 81.1951 146.286 77.7608V77.7608Z" fill="white"/>
<path d="M146.303 78.1605C143.608 79.743 138.473 81.9301 133.238 79.7093L129.484 78.1168L136.217 70.5691C132.028 65.8568 129.326 60.0101 128.453 53.7655C127.58 47.5209 128.575 41.1576 131.311 35.477C134.047 29.7964 138.404 25.0525 143.831 21.8427C149.258 18.633 155.514 17.1009 161.81 17.4394C168.106 17.778 174.161 19.9721 179.213 23.7453C184.265 27.5185 188.087 32.7022 190.198 38.6435C192.31 44.5848 192.616 51.0181 191.078 57.133C189.541 63.248 186.228 68.7712 181.558 73.0072V73.0072C176.867 77.2871 171.003 80.0651 164.72 80.9835C158.437 81.9019 152.023 80.9187 146.303 78.1605V78.1605ZM183.237 28.3526C180.481 25.3112 177.153 22.8425 173.443 21.0876C169.733 19.3328 165.714 18.3261 161.614 18.1251C157.515 17.9241 153.416 18.5327 149.553 19.9162C145.689 21.2996 142.135 23.4309 139.095 26.1881C136.055 28.9453 133.588 32.2745 131.835 35.9854C130.082 39.6963 129.077 43.7163 128.878 47.8157C128.679 51.915 129.289 56.0134 130.675 59.8767C132.06 63.7401 134.193 67.2926 136.952 70.3313L137.165 70.5664L130.665 77.852L133.514 79.0602C138.569 81.2048 143.572 78.977 146.105 77.4584L146.268 77.3601L146.44 77.4436C152.968 80.6153 160.396 81.4156 167.449 79.7072C174.503 77.9987 180.741 73.8881 185.094 68.081C189.447 62.2739 191.642 55.1326 191.304 47.8831C190.965 40.6336 188.113 33.7283 183.237 28.3525V28.3526Z" fill="#6C63FF"/>
<path opacity="0.1" d="M186.768 49.145C186.768 41.8786 184.046 34.8757 179.141 29.5154C174.235 24.1551 167.5 20.8258 160.262 20.1833C161.109 20.1091 161.965 20.0689 162.832 20.0689C170.54 20.0729 177.932 23.138 183.382 28.5904C188.831 34.0428 191.893 41.4362 191.893 49.145C191.893 56.8539 188.831 64.2472 183.382 69.6996C177.932 75.152 170.54 78.2171 162.832 78.2211C161.967 78.2211 161.111 78.1804 160.266 78.1064C167.503 77.4629 174.237 74.1333 179.142 68.7731C184.047 63.413 186.768 56.4107 186.768 49.145V49.145Z" fill="black"/>
<path d="M164.197 43.3469H143.421V45.2763H164.197V43.3469Z" fill="#6C63FF"/>
<path d="M179.633 50.0212H143.421V51.9506H179.633V50.0212Z" fill="#6C63FF"/>
<path d="M179.597 56.6956H143.421V58.625H179.597V56.6956Z" fill="#6C63FF"/>
<path d="M80.8231 126.933C77.8705 124.255 75.7784 120.762 74.8112 116.895C73.844 113.028 74.0451 108.962 75.3892 105.209C76.7332 101.457 79.1599 98.1869 82.3622 95.8135C85.5645 93.4402 89.3988 92.0697 93.38 91.8754C97.3612 91.6812 101.311 92.6718 104.729 94.7222C108.147 96.7725 110.88 99.7904 112.583 103.394C114.286 106.998 114.883 111.026 114.296 114.969C113.71 118.911 111.968 122.591 109.29 125.544L113.51 130.274L111.404 131.168C108.147 132.549 104.959 131.205 103.17 130.132C99.5511 131.89 95.4891 132.525 91.5065 131.955C87.5239 131.385 83.8031 129.636 80.8231 126.933V126.933Z" fill="white"/>
<path d="M94.3361 132.401C89.2802 132.397 84.4077 130.506 80.672 127.1C77.6929 124.398 75.5799 120.875 74.5991 116.974C73.6184 113.074 73.8137 108.971 75.1604 105.181C76.5072 101.391 78.9452 98.0849 82.1674 95.6781C85.3897 93.2714 89.252 91.8719 93.268 91.656C97.284 91.44 101.274 92.4172 104.736 94.4646C108.198 96.5119 110.976 99.5378 112.722 103.161C114.467 106.785 115.101 110.843 114.544 114.826C113.987 118.809 112.264 122.539 109.592 125.545L113.887 130.359L111.492 131.375C108.153 132.791 104.878 131.396 103.159 130.387C100.406 131.71 97.3907 132.398 94.3361 132.401ZM80.9742 126.766C83.9148 129.45 87.5948 131.187 91.5357 131.751C95.4767 132.315 99.4961 131.68 103.071 129.929L103.181 129.876L103.285 129.939C104.901 130.907 108.092 132.328 111.317 130.96L113.133 130.19L108.988 125.543L109.124 125.393C111.772 122.473 113.494 118.834 114.074 114.935C114.654 111.037 114.064 107.054 112.38 103.49C110.696 99.9267 107.993 96.9425 104.613 94.915C101.233 92.8876 97.3277 91.908 93.3909 92.1001C89.4541 92.2922 85.6627 93.6474 82.4961 95.9943C79.3295 98.3411 76.93 101.574 75.6009 105.285C74.2718 108.996 74.0729 113.017 75.0294 116.841C75.9858 120.664 78.0546 124.119 80.9742 126.766V126.766Z" fill="#6C63FF"/>
<path opacity="0.1" d="M77.3485 111.879C77.3488 107.244 79.0844 102.778 82.2136 99.3585C85.3428 95.9395 89.6387 93.8159 94.2554 93.4061C93.7152 93.3587 93.1687 93.3331 92.6162 93.3331C87.6992 93.3357 82.9845 95.2908 79.5085 98.7686C76.0326 102.246 74.08 106.962 74.08 111.879C74.08 116.796 76.0326 121.512 79.5085 124.99C82.9845 128.468 87.6992 130.423 92.6162 130.425C93.1679 130.425 93.7134 130.399 94.2528 130.352C89.6366 129.942 85.3414 127.818 82.2127 124.399C79.0841 120.98 77.3488 116.514 77.3485 111.879V111.879Z" fill="black"/>
<path d="M104.997 108.181H91.7451V109.412H104.997V108.181Z" fill="#6C63FF"/>
<path d="M104.997 112.438H81.8998V113.669H104.997V112.438Z" fill="#6C63FF"/>
<path d="M104.997 116.695H81.9224V117.926H104.997V116.695Z" fill="#6C63FF"/>
<path d="M120.149 134.872C121.724 134.872 123.001 133.595 123.001 132.02C123.001 130.445 121.724 129.168 120.149 129.168C118.574 129.168 117.297 130.445 117.297 132.02C117.297 133.595 118.574 134.872 120.149 134.872Z" fill="#6C63FF"/>
<path d="M124.298 82.2338C126.16 82.2338 127.669 80.7246 127.669 78.8629C127.669 77.0012 126.16 75.4919 124.298 75.4919C122.436 75.4919 120.927 77.0012 120.927 78.8629C120.927 80.7246 122.436 82.2338 124.298 82.2338Z" fill="#6C63FF"/>
</svg>
