<svg width="260" height="197" viewBox="0 0 260 197" fill="none" xmlns="http://www.w3.org/2000/svg">
<path d="M0.00764555 123.966L3.35591 125.961L146.236 44.1164L254.718 109.306L259.67 107.827V113.687C259.735 114.292 259.621 114.904 259.343 115.446C259.065 115.988 258.635 116.437 258.106 116.738L121.296 195.289C119.359 196.401 117.165 196.99 114.932 197C112.698 197.009 110.5 196.439 108.552 195.344L2.83177 135.889C1.82179 135.325 1.01422 134.459 0.522967 133.411C0.0317138 132.364 -0.118434 131.19 0.0936996 130.053L0.00764555 123.966Z" fill="#68E1FD"/>
<path d="M0.00764555 123.966L3.35591 125.961L146.236 44.1164L254.718 109.306L259.67 107.827V113.687C259.735 114.292 259.621 114.904 259.343 115.446C259.065 115.988 258.635 116.437 258.106 116.738L121.296 195.289C119.359 196.401 117.165 196.99 114.932 197C112.698 197.009 110.5 196.439 108.552 195.344L2.83177 135.889C1.82179 135.325 1.01422 134.459 0.522967 133.411C0.0317138 132.364 -0.118434 131.19 0.0936996 130.053L0.00764555 123.966Z" fill="#68E1FD"/>
<path opacity="0.39" d="M0.00764555 123.966L3.35591 125.961L146.236 44.1164L254.718 109.306L259.67 107.827V113.687C259.735 114.292 259.621 114.904 259.343 115.446C259.065 115.988 258.635 116.437 258.106 116.738L121.296 195.289C119.359 196.401 117.165 196.99 114.932 197C112.698 197.009 110.5 196.439 108.552 195.344L2.83177 135.889C1.82179 135.325 1.01422 134.459 0.522967 133.411C0.0317138 132.364 -0.118434 131.19 0.0936996 130.053L0.00764555 123.966Z" fill="#124577"/>
<path d="M258.113 109.501L121.296 188.053C119.359 189.164 117.165 189.754 114.932 189.764C112.698 189.773 110.5 189.202 108.552 188.107L2.83174 128.652C1.9775 128.169 1.2669 127.467 0.772491 126.619C0.278082 125.771 0.0175781 124.807 0.0175781 123.825C0.0175781 122.844 0.278082 121.88 0.772491 121.032C1.2669 120.184 1.9775 119.482 2.83174 118.999L146.267 36.8566L258.2 104.135C258.659 104.42 259.036 104.82 259.295 105.294C259.553 105.769 259.685 106.302 259.676 106.842C259.667 107.383 259.519 107.912 259.245 108.378C258.971 108.844 258.581 109.231 258.113 109.501Z" fill="#68E1FD"/>
<path d="M241.889 106.231L124.238 173.729L19.9486 115.103L139.227 45.0551L241.889 106.231Z" fill="white"/>
<path opacity="0.39" d="M59.2829 150.549C62.1561 150.549 64.4852 149.278 64.4852 147.709C64.4852 146.141 62.1561 144.869 59.2829 144.869C56.4097 144.869 54.0806 146.141 54.0806 147.709C54.0806 149.278 56.4097 150.549 59.2829 150.549Z" fill="#124577"/>
<path d="M128.814 149.861C129.755 149.269 130.526 148.443 131.052 147.465C131.579 146.486 131.843 145.388 131.818 144.277C131.794 143.166 131.482 142.08 130.913 141.125C130.344 140.171 129.537 139.38 128.572 138.83L76.1572 108.962C74.2306 107.863 72.0486 107.291 69.8306 107.303C67.6127 107.315 65.4371 107.912 63.523 109.032V109.032C62.5584 109.606 61.761 110.423 61.21 111.401C60.6591 112.379 60.3738 113.485 60.3825 114.607C60.3912 115.73 60.6936 116.83 61.2596 117.8C61.8257 118.769 62.6357 119.574 63.609 120.133L115.82 150.095C117.803 151.239 120.061 151.821 122.35 151.779C124.639 151.738 126.873 151.075 128.814 149.861V149.861Z" fill="#9EE8E1"/>
<path d="M154.599 120.563C181.689 120.563 203.649 110.515 203.649 98.1189C203.649 85.7232 181.689 75.6746 154.599 75.6746C127.509 75.6746 105.548 85.7232 105.548 98.1189C105.548 110.515 127.509 120.563 154.599 120.563Z" stroke="#29ABE2" stroke-width="1.015" stroke-miterlimit="10"/>
<path d="M44.4348 27.7193L45.6786 71.7787C45.7219 72.2494 45.8774 72.7029 46.132 73.1012C46.3867 73.4994 46.7331 73.8308 47.1423 74.0676C47.5514 74.3044 48.0114 74.4396 48.4836 74.4619C48.9558 74.4843 49.4264 74.3931 49.8561 74.196L85.2163 54.5914C85.8152 54.2932 86.3175 53.8315 86.665 53.2597C87.0124 52.6879 87.191 52.0295 87.1799 51.3605L86.3976 8.81095C86.3888 8.32011 86.2553 7.83957 86.0097 7.41452C85.764 6.98947 85.4143 6.63388 84.9934 6.38119C84.5725 6.1285 84.0943 5.98701 83.6037 5.97003C83.113 5.95304 82.6262 6.06113 82.1888 6.28411L46.3749 24.4962C45.7816 24.7971 45.2849 25.259 44.9418 25.829C44.5987 26.399 44.423 27.0541 44.4348 27.7193V27.7193Z" fill="#F26122"/>
<path d="M63.038 51.9081C61.2804 48.8571 59.6193 45.7827 58.0547 42.6848C57.8102 42.2103 57.4464 41.8076 56.9991 41.5164C56.5518 41.2252 56.0364 41.0555 55.5035 41.0239C54.9707 40.9923 54.4389 41.1 53.9603 41.3363C53.4817 41.5727 53.0729 41.9296 52.7741 42.3718L52.735 42.4344C52.4313 42.8934 52.254 43.4244 52.221 43.9738C52.188 44.5232 52.3006 45.0716 52.5472 45.5636C54.1979 48.7554 55.8955 51.9316 57.6713 55.0608C59.6193 58.5421 65.025 55.405 63.038 51.9081Z" fill="white"/>
<path d="M57.8826 51.9864C64.2796 42.0301 70.1295 31.7328 75.4062 21.1401C77.1977 17.5493 82.5721 20.702 80.7885 24.2693C75.5117 34.862 69.6619 45.1593 63.2649 55.1156C61.0979 58.4951 55.7078 55.3737 57.8826 51.9864Z" fill="white"/>
<path style="mix-blend-mode:multiply" opacity="0.46" d="M128.251 97.0862L89.0652 118.537L128.251 139.644L186.181 107.608" fill="url(#paint0_linear_57_368)"/>
<path d="M186.181 107.616C186.181 107.616 185.312 93.7849 184.991 90.3584C184.702 87.2292 183.669 73.6719 175.166 69.377C164.417 63.9478 152.033 56.9071 140.588 60.1849C131.31 62.8448 128.149 94.9506 128.251 97.0941C128.462 100.935 157.212 121.267 186.181 107.616Z" fill="#FF8386"/>
<path d="M164.206 71.0198C164.206 71.6457 156.617 80.2902 154.818 79.1715C153.019 78.0528 152.15 70.3236 151.024 71.0198C149.897 71.7161 145.759 76.715 145.164 76.3239C144.57 75.9327 146.056 62.6805 147.277 60.4587C148.497 58.237 164.206 66.107 164.206 71.0198Z" fill="#2B415D"/>
<path d="M145.133 38.8515C145.133 38.8515 145.18 47.8402 145.133 51.1806C145.086 54.701 146.572 64.2138 152.362 63.9087C158.151 63.6036 164.096 56.8679 164.096 55.3033C164.096 55.3033 169.948 51.6656 166.639 48.865C163.329 46.0643 163.079 50.8051 163.079 50.8051C163.079 50.8051 161.288 48.2 161.162 41.2062C161.155 41.2219 152.893 42.5283 145.133 38.8515Z" fill="#FFAC73"/>
<path d="M163.815 64.6519C160.865 67.3743 156.062 67.8828 151.618 67.2413C151.285 67.217 150.971 67.0783 150.729 66.8487C150.486 66.6192 150.331 66.3129 150.288 65.9818C150.218 64.6206 150.132 63.2594 150.015 61.906L165.277 54.4193L164.096 64.1434C164.096 64.1434 164.002 64.3624 163.815 64.6519Z" fill="#FFAC73"/>
<path d="M153.347 67.4212C152.753 67.3743 152.158 67.3117 151.571 67.2335C151.25 67.2108 150.947 67.0775 150.713 66.8565C150.479 66.6354 150.329 66.3402 150.288 66.0209C150.288 65.309 150.218 64.6049 150.171 63.9009C153.402 63.9009 159.152 63.1186 162.187 57.1574C161.794 59.5134 160.762 61.7164 159.203 63.5263C157.645 65.3361 155.619 66.6834 153.347 67.4212V67.4212Z" fill="#E5894A"/>
<path d="M145.156 43.9677C145.156 43.9677 141.487 41.6208 141.926 36.1838C142.364 30.7468 148.403 27.6254 156.625 28.087C164.847 28.5485 174.329 32.6009 175.659 46.08C176.988 59.5591 179.914 67.39 175.134 69.3614C170.355 71.3328 162.719 73.5623 154.794 72.6158C154.794 72.6158 162.547 57.2982 161.741 46.9874C160.936 36.6767 160.748 44.5466 159.848 46.2521C158.948 47.9575 145.156 43.9677 145.156 43.9677Z" fill="#4B1B13"/>
<path d="M168.939 112.193C168.649 112.193 168.368 112.193 168.078 112.239C168.162 106.456 168.177 100.674 168.125 94.8958C168.147 94.6586 168.256 94.438 168.432 94.2774C168.608 94.1168 168.837 94.0277 169.075 94.0277C169.314 94.0277 169.543 94.1168 169.719 94.2774C169.895 94.438 170.004 94.6586 170.026 94.8958C170.078 100.633 170.063 106.37 169.979 112.106L168.939 112.193Z" fill="#BC424B"/>
<path d="M137.584 104.941C137.522 104.904 137.456 104.872 137.388 104.847L136.872 104.565L136.27 104.236L135.769 103.963C135.769 97.0888 135.972 90.2228 136.379 83.3646C136.449 82.1442 138.35 82.1364 138.28 83.3646C137.884 90.4366 137.678 97.5113 137.662 104.589C137.659 104.71 137.632 104.829 137.584 104.941V104.941Z" fill="#BC424B"/>
<path d="M168.469 24.5822L182.081 32.1315C182.586 32.412 183.007 32.8225 183.3 33.3204C183.593 33.8184 183.748 34.3857 183.748 34.9634V55.8431" stroke="#29ABE2" stroke-width="4.06" stroke-miterlimit="10"/>
<path d="M183.748 89.7404V108.218C183.748 108.643 183.637 109.06 183.426 109.428C183.215 109.796 182.911 110.103 182.544 110.316C182.177 110.53 181.761 110.644 181.337 110.647C180.912 110.649 180.495 110.54 180.126 110.331L168.563 103.775" stroke="#29ABE2" stroke-width="4.06" stroke-miterlimit="10"/>
<path d="M145.352 11.463L131.052 3.20965C130.813 3.07172 130.542 2.99939 130.266 3C129.99 3.00061 129.719 3.07414 129.481 3.21313C129.243 3.35212 129.045 3.55164 128.909 3.79145C128.773 4.03126 128.702 4.30285 128.705 4.57869V23.6122" stroke="#29ABE2" stroke-width="4.06" stroke-miterlimit="10"/>
<path d="M139.923 91.1877L129.948 85.9071C129.188 85.5045 128.551 84.902 128.107 84.1645C127.663 83.4271 127.429 82.5825 127.429 81.7218V64.425" stroke="#29ABE2" stroke-width="4.06" stroke-miterlimit="10"/>
<path d="M71.5025 119.288L71.213 117.81L74.6004 117.63L73.0358 116.159L75.6878 115.502L77.0255 117.066L79.3724 115.682L81.469 116.746L78.7466 117.927L81.8758 118.607L80.5694 119.945L77.667 119.163L77.3228 120.876L74.397 120.735L75.0776 118.959L71.5025 119.288Z" fill="black"/>
<path d="M83.0885 126.266L82.799 124.788L86.1864 124.608L84.6218 123.137L87.2738 122.48L88.6115 124.044L90.9584 122.66L93.055 123.724L90.3326 124.905L93.4618 125.586L92.1554 126.923L89.253 126.141L88.9088 127.854L85.983 127.713L86.6636 125.938L83.0885 126.266Z" fill="black"/>
<path d="M97.4359 134.214L97.1464 132.736L100.534 132.556L98.9692 131.085L101.621 130.428L102.959 131.993L105.306 130.608L107.402 131.672L104.68 132.853L107.809 133.534L106.503 134.872L103.6 134.089L103.194 135.779L100.268 135.638L100.948 133.862L97.4359 134.214Z" fill="black"/>
<path d="M110.806 141.975L110.516 140.496L113.903 140.316L112.339 138.846L114.991 138.189L116.329 139.753L118.675 138.368L120.772 139.432L118.05 140.614L121.179 141.294L119.872 142.632L116.97 141.85L116.626 143.563L113.7 143.422L114.381 141.646L110.806 141.975Z" fill="black"/>
<defs>
<linearGradient id="paint0_linear_57_368" x1="123.8" y1="131.946" x2="138.851" y2="111.395" gradientUnits="userSpaceOnUse">
<stop offset="0.01" stop-color="white" stop-opacity="0"/>
<stop offset="1" stop-color="#B3B3B3" stop-opacity="0.97"/>
</linearGradient>
</defs>
</svg>
