<svg width="211" height="213" viewBox="0 0 211 213" fill="none" xmlns="http://www.w3.org/2000/svg">
<path d="M69.9127 169.433C55.2673 162.266 39.7096 157.138 23.673 154.191C31.9409 148.709 32.408 134.673 33.7928 124.848C38.2504 93.3169 69.5276 73.1756 93.8479 56.5824C95.8964 55.1397 98.0189 53.805 100.207 52.5836C102.788 51.1988 109.974 46.9132 111.859 50.871C113.67 54.6813 109.179 61.6136 106.942 64.4078C108.427 62.1966 110.07 60.0961 111.859 58.1229C112.409 57.3857 113.173 56.8362 114.047 56.5496C115.685 56.1727 117.25 57.7296 117.496 59.3848C117.742 61.04 117.054 62.6624 116.3 64.1784C114.484 67.758 112.221 71.0924 109.564 74.1015C111.351 72.0776 117.955 64.4979 117.816 72.1759C117.701 77.0121 115.684 81.6081 112.203 84.967C113.731 83.6258 115.376 82.4246 117.119 81.3779C117.364 81.1852 117.647 81.0456 117.949 80.968C118.251 80.8904 118.565 80.8765 118.873 80.9273C119.198 81.0854 119.478 81.3244 119.684 81.6214C119.891 81.9184 120.018 82.2634 120.053 82.6235C121.151 87.54 118.414 91.0635 116.546 95.2671C115.087 98.5447 114.235 101.626 112.375 104.781C105.656 116.203 98.5268 127.429 90.8406 138.221C88.8576 140.966 70.011 169.482 69.9127 169.433Z" fill="white"/>
<path d="M69.8881 169.85C69.8328 169.848 69.779 169.831 69.7324 169.801V169.801C55.1213 162.649 39.5993 157.532 23.5992 154.593C23.5204 154.577 23.448 154.539 23.3908 154.483C23.3337 154.426 23.2943 154.354 23.2778 154.276C23.2612 154.197 23.268 154.115 23.2975 154.041C23.327 153.966 23.3778 153.901 23.4435 153.855C30.4004 149.242 31.7524 138.09 32.8422 129.125C33.0225 127.618 33.1946 126.167 33.3913 124.791C37.7014 94.292 67.1267 74.2736 90.7505 58.1802L93.5939 56.2464C95.6522 54.794 97.7857 53.451 99.9853 52.2231L100.559 51.9117C103.017 50.5842 107.516 48.1178 110.318 49.0273C110.73 49.1515 111.112 49.3618 111.437 49.6443C111.761 49.9268 112.023 50.2751 112.203 50.6662C113.178 52.7229 112.49 55.4762 111.342 58C111.392 57.9344 111.449 57.8771 111.506 57.8115C112.121 57.0137 112.969 56.4267 113.932 56.1317C114.32 56.0514 114.72 56.0522 115.108 56.1339C115.496 56.2157 115.863 56.3768 116.185 56.607C116.634 56.9213 117.016 57.3225 117.307 57.787C117.599 58.2515 117.794 58.7697 117.881 59.311C118.144 61.0646 117.439 62.7608 116.644 64.3423C115.729 66.1439 114.702 67.8872 113.571 69.5619C114.8 68.6442 115.948 68.1525 116.849 68.4967C117.75 68.8409 118.258 70.07 118.217 72.1677C118.141 75.753 117.035 79.2406 115.03 82.2138C115.644 81.7877 116.259 81.3943 116.89 81.0092C117.183 80.7836 117.521 80.623 117.882 80.5382C118.242 80.4535 118.616 80.4464 118.979 80.5176C119.38 80.6881 119.726 80.9643 119.981 81.3164C120.237 81.6686 120.392 82.0835 120.43 82.5169C121.331 86.5567 119.782 89.6213 118.144 92.8662C117.726 93.6856 117.324 94.546 116.898 95.4228C116.39 96.5618 115.948 97.7007 115.521 98.807C114.757 100.935 113.817 102.996 112.711 104.969C105.418 117.375 98.3711 128.322 91.1602 138.442C90.2015 139.794 85.1211 147.456 80.2046 154.831L73.3543 165.114C70.6092 169.211 70.1749 169.85 69.8881 169.85ZM24.689 153.97C40.3098 156.925 55.4664 161.951 69.757 168.916C70.7075 167.548 75.157 160.861 79.4753 154.38C84.3918 147.005 89.4722 139.344 90.4473 137.991C97.6418 127.888 104.672 116.957 111.957 104.584C113.04 102.645 113.961 100.619 114.71 98.5284C115.136 97.4221 115.587 96.2668 116.103 95.1114C116.497 94.2182 116.923 93.3578 117.357 92.522C118.938 89.4082 120.422 86.4747 119.586 82.689C119.463 82.14 119.201 81.4517 118.684 81.2878C118.432 81.2607 118.177 81.2836 117.934 81.3554C117.691 81.4271 117.464 81.5461 117.267 81.7057C115.549 82.7411 113.926 83.9256 112.416 85.2456C112.334 85.311 112.231 85.3428 112.127 85.3346C112.023 85.3263 111.926 85.2786 111.856 85.2011C111.786 85.1237 111.748 85.0224 111.75 84.9179C111.752 84.8135 111.794 84.7138 111.867 84.6392C113.557 83.0188 114.911 81.0811 115.852 78.9369C116.792 76.7927 117.301 74.4841 117.349 72.1431C117.349 70.5043 117.087 69.48 116.529 69.2506C115.456 68.8409 113.252 70.5125 109.917 74.2572L109.843 74.3473C109.805 74.3857 109.76 74.4162 109.71 74.437C109.66 74.4578 109.606 74.4685 109.552 74.4685C109.498 74.4685 109.444 74.4578 109.394 74.437C109.345 74.4162 109.299 74.3857 109.261 74.3473C109.222 74.3106 109.191 74.2661 109.169 74.2168C109.148 74.1675 109.137 74.1143 109.137 74.0605C109.137 74.0068 109.148 73.9536 109.169 73.9043C109.191 73.855 109.222 73.8105 109.261 73.7738V73.7738C111.891 70.7929 114.13 67.4886 115.923 63.9407C116.66 62.4822 117.308 60.9253 117.078 59.4012C117.007 58.9714 116.851 58.5602 116.619 58.1916C116.386 57.823 116.083 57.5043 115.726 57.2543C115.494 57.0824 115.228 56.962 114.945 56.9013C114.662 56.8405 114.37 56.8407 114.087 56.9019C113.3 57.1755 112.613 57.6776 112.113 58.3441C111.08 59.4995 110.081 60.6959 109.146 61.9332C108.155 63.4491 107.327 64.4898 107.229 64.6127C107.162 64.6943 107.066 64.7473 106.961 64.7609C106.856 64.7746 106.75 64.748 106.664 64.6864C106.577 64.6253 106.518 64.5325 106.5 64.4281C106.481 64.3237 106.505 64.2163 106.565 64.1292C107.204 63.1705 107.876 62.2364 108.573 61.3268C110.687 58.0491 112.719 53.6407 111.465 51.0021C111.334 50.7064 111.142 50.4422 110.9 50.2274C110.658 50.0125 110.373 49.852 110.064 49.7566C107.606 48.9372 103.107 51.3955 100.952 52.5836L100.379 52.895C98.2069 54.133 96.1034 55.487 94.0773 56.9511L91.2339 58.8849C67.7248 74.88 38.4634 94.7918 34.2025 124.93C34.0058 126.298 33.8337 127.749 33.6535 129.248C32.5718 138.008 31.2772 148.865 24.689 153.97Z" fill="#231F20"/>
<path d="M92.7233 0.996998L37.2656 14.6495C35.0289 15.2001 33.6621 17.4597 34.2127 19.6964L63.4079 138.29C63.9585 140.527 66.2181 141.893 68.4548 141.343L123.912 127.69C126.149 127.14 127.516 124.88 126.965 122.643L97.7702 4.04991C97.2196 1.81321 94.96 0.446367 92.7233 0.996998Z" fill="white"/>
<path d="M67.4381 141.884C66.6032 141.881 65.7848 141.651 65.07 141.22C64.5534 140.911 64.1039 140.501 63.7479 140.016C63.3918 139.53 63.1365 138.979 62.9969 138.393L33.8092 19.7987C33.5198 18.6198 33.7102 17.3742 34.3386 16.3355C34.967 15.2969 35.982 14.5502 37.1606 14.2595L92.6188 0.607967C93.7988 0.318363 95.0454 0.508551 96.0854 1.13682C97.1253 1.76509 97.8737 2.78015 98.1663 3.95938L127.354 122.554C127.641 123.735 127.449 124.981 126.819 126.021C126.19 127.06 125.174 127.808 123.994 128.101L68.5361 141.744C68.1772 141.836 67.8084 141.882 67.4381 141.884V141.884ZM93.725 1.29628C93.4187 1.29525 93.1133 1.33101 92.8155 1.4028L37.3573 15.0543C36.3894 15.2927 35.5557 15.9056 35.0395 16.7584C34.5232 17.6111 34.3666 18.6339 34.6041 19.6021L63.7917 138.196C64.0301 139.164 64.6431 139.998 65.4958 140.514C66.3485 141.03 67.3713 141.187 68.3395 140.95L123.798 127.306C124.767 127.066 125.601 126.452 126.118 125.598C126.636 124.744 126.794 123.721 126.559 122.75L97.3714 4.15604C97.1715 3.33999 96.7035 2.61464 96.0423 2.09614C95.3812 1.57764 94.5652 1.29599 93.725 1.29628V1.29628Z" fill="#231F20"/>
<path d="M96.2468 12.2732L39.3649 26.2764L63.3694 123.785L120.251 109.782L96.2468 12.2732Z" fill="#68E1FD"/>
<path d="M98.3925 120.196L87.5715 122.86C86.1961 123.199 85.3555 124.588 85.6941 125.964L86.7127 130.101C87.0513 131.477 88.4408 132.317 89.8162 131.978L100.637 129.315C102.013 128.976 102.853 127.586 102.515 126.211L101.496 122.074C101.157 120.698 99.7679 119.858 98.3925 120.196Z" fill="white"/>
<path d="M89.1935 132.477C88.5282 132.476 87.8824 132.251 87.3595 131.84C86.8366 131.428 86.4668 130.853 86.3092 130.207L85.2849 126.069C85.1093 125.307 85.2402 124.506 85.6494 123.839C86.0586 123.172 86.7135 122.693 87.4727 122.505L98.2973 119.841C99.0632 119.656 99.8714 119.781 100.545 120.189C101.219 120.598 101.704 121.256 101.894 122.021L102.911 126.118C103.098 126.884 102.974 127.694 102.566 128.368C102.157 129.043 101.497 129.527 100.731 129.715L89.931 132.387C89.6898 132.447 89.4421 132.477 89.1935 132.477V132.477ZM99.0265 120.538C98.8498 120.539 98.6738 120.561 98.5021 120.603L87.6858 123.267C87.4111 123.333 87.1523 123.454 86.9244 123.621C86.6966 123.789 86.5042 123.999 86.3583 124.242C86.2117 124.485 86.1145 124.755 86.0723 125.037C86.0301 125.318 86.0438 125.605 86.1125 125.881L87.1286 129.978C87.1958 130.253 87.3165 130.512 87.4839 130.74C87.6512 130.968 87.8619 131.161 88.1039 131.308C88.3458 131.455 88.6144 131.553 88.8941 131.596C89.1739 131.639 89.4594 131.626 89.7343 131.559L100.551 128.896C100.826 128.829 101.085 128.708 101.313 128.541C101.541 128.373 101.734 128.163 101.881 127.921C102.028 127.679 102.126 127.41 102.169 127.13C102.212 126.851 102.199 126.565 102.132 126.29L101.116 122.193C101.049 121.918 100.929 121.66 100.761 121.432C100.594 121.204 100.383 121.012 100.141 120.866C99.8003 120.65 99.4051 120.536 99.002 120.538H99.0265Z" fill="#E6E7E8"/>
<path d="M55.8925 16.2998C55.8039 16.2935 55.7195 16.2592 55.6518 16.2017C55.584 16.1442 55.5363 16.0667 55.5156 15.9802C55.5022 15.9275 55.4994 15.8726 55.5074 15.8188C55.5154 15.7649 55.5341 15.7133 55.5623 15.6667C55.5906 15.6202 55.6278 15.5797 55.6718 15.5478C55.7158 15.5158 55.7658 15.4929 55.8188 15.4804L72.0105 11.498C72.0627 11.4845 72.117 11.4814 72.1704 11.4889C72.2238 11.4964 72.2752 11.5143 72.3216 11.5418C72.3681 11.5692 72.4086 11.6055 72.441 11.6486C72.4734 11.6917 72.4969 11.7408 72.5103 11.793C72.5352 11.8994 72.5173 12.0113 72.4607 12.1048C72.404 12.1982 72.313 12.2657 72.2071 12.2929L56.0154 16.2752L55.8925 16.2998Z" fill="#E6E7E8"/>
<path d="M74.3622 11.752C74.271 11.7525 74.1824 11.7219 74.1109 11.6653C74.0394 11.6087 73.9893 11.5295 73.9688 11.4407C73.9437 11.3354 73.9604 11.2244 74.0154 11.1312C74.0704 11.0379 74.1595 10.9697 74.2638 10.9408L76.4435 10.4082C76.5521 10.3821 76.6667 10.4003 76.762 10.4587C76.8573 10.5171 76.9254 10.6109 76.9515 10.7196C76.9776 10.8282 76.9594 10.9428 76.901 11.0381C76.8426 11.1334 76.7488 11.2015 76.6401 11.2276L74.4605 11.7684L74.3622 11.752Z" fill="#E6E7E8"/>
<path d="M102.994 88.8849L69.2902 97.1822C66.3065 97.9167 64.4832 100.931 65.2177 103.915L65.8131 106.334C66.5477 109.317 69.5619 111.141 72.5457 110.406L106.25 102.109C109.234 101.374 111.057 98.36 110.322 95.3763L109.727 92.9575C108.992 89.9737 105.978 88.1504 102.994 88.8849Z" fill="white"/>
<path d="M71.1992 111.033C69.8656 111.029 68.5716 110.579 67.5232 109.755C66.4749 108.931 65.7324 107.78 65.4141 106.485L64.8241 104.027C64.4478 102.489 64.6962 100.865 65.5148 99.5108C66.3334 98.1561 67.6556 97.1811 69.1916 96.7994L102.902 88.5069C103.663 88.3195 104.453 88.2839 105.228 88.402C106.003 88.5201 106.746 88.7897 107.417 89.1952C108.087 89.6008 108.671 90.1345 109.135 90.7657C109.599 91.397 109.934 92.1135 110.122 92.8744L110.72 95.3326C111.096 96.869 110.847 98.4918 110.028 99.8451C109.21 101.198 107.888 102.172 106.352 102.552V102.552L72.6413 110.82C72.1708 110.948 71.6867 111.019 71.1992 111.033V111.033ZM104.336 89.187C103.919 89.1903 103.504 89.2426 103.099 89.3427L69.3883 97.5942C68.7309 97.7554 68.1118 98.0447 67.5664 98.4455C67.021 98.8464 66.56 99.3508 66.2099 99.9301C65.8597 100.509 65.6273 101.152 65.5259 101.821C65.4245 102.49 65.4561 103.173 65.6189 103.83L66.2089 106.288C66.5384 107.614 67.3796 108.754 68.5483 109.461C69.717 110.167 71.1181 110.382 72.4447 110.058L106.156 101.757C107.48 101.429 108.621 100.59 109.328 99.4223C110.034 98.2549 110.249 96.8549 109.925 95.5293L109.327 93.071C109.048 91.9558 108.407 90.9648 107.504 90.2541C106.6 89.5435 105.486 89.1537 104.336 89.146V89.187Z" fill="#231F20"/>
<path d="M101.652 60.3868L57.1429 71.344L59.1115 79.3404L103.621 68.3832L101.652 60.3868Z" fill="white"/>
<path d="M63.2591 75.7649C64.0239 75.7649 64.6439 75.1449 64.6439 74.3801C64.6439 73.6153 64.0239 72.9953 63.2591 72.9953C62.4943 72.9953 61.8743 73.6153 61.8743 74.3801C61.8743 75.1449 62.4943 75.7649 63.2591 75.7649Z" fill="#68E1FD"/>
<path d="M68.3394 74.5194C69.1042 74.5194 69.7242 73.8994 69.7242 73.1346C69.7242 72.3698 69.1042 71.7498 68.3394 71.7498C67.5746 71.7498 66.9546 72.3698 66.9546 73.1346C66.9546 73.8994 67.5746 74.5194 68.3394 74.5194Z" fill="#68E1FD"/>
<path d="M73.4117 73.2657C74.1765 73.2657 74.7965 72.6457 74.7965 71.8809C74.7965 71.1161 74.1765 70.4961 73.4117 70.4961C72.6469 70.4961 72.0269 71.1161 72.0269 71.8809C72.0269 72.6457 72.6469 73.2657 73.4117 73.2657Z" fill="#68E1FD"/>
<path d="M78.492 72.0202C79.2568 72.0202 79.8768 71.4002 79.8768 70.6354C79.8768 69.8706 79.2568 69.2506 78.492 69.2506C77.7272 69.2506 77.1072 69.8706 77.1072 70.6354C77.1072 71.4002 77.7272 72.0202 78.492 72.0202Z" fill="#68E1FD"/>
<path d="M104.856 73.4271L60.3467 84.3843L62.3152 92.3807L106.825 81.4235L104.856 73.4271Z" fill="white"/>
<path d="M66.4629 88.8019C67.2278 88.8019 67.8478 88.1819 67.8478 87.4171C67.8478 86.6522 67.2278 86.0322 66.4629 86.0322C65.6981 86.0322 65.0781 86.6522 65.0781 87.4171C65.0781 88.1819 65.6981 88.8019 66.4629 88.8019Z" fill="#68E1FD"/>
<path d="M71.5434 87.5482C72.3082 87.5482 72.9282 86.9282 72.9282 86.1633C72.9282 85.3985 72.3082 84.7785 71.5434 84.7785C70.7786 84.7785 70.1586 85.3985 70.1586 86.1633C70.1586 86.9282 70.7786 87.5482 71.5434 87.5482Z" fill="#68E1FD"/>
<path d="M76.6237 86.3027C77.3885 86.3027 78.0085 85.6827 78.0085 84.9178C78.0085 84.153 77.3885 83.533 76.6237 83.533C75.8589 83.533 75.2389 84.153 75.2389 84.9178C75.2389 85.6827 75.8589 86.3027 76.6237 86.3027Z" fill="#68E1FD"/>
<path d="M81.6959 85.0571C82.4607 85.0571 83.0807 84.4371 83.0807 83.6723C83.0807 82.9075 82.4607 82.2875 81.6959 82.2875C80.931 82.2875 80.311 82.9075 80.311 83.6723C80.311 84.4371 80.931 85.0571 81.6959 85.0571Z" fill="#68E1FD"/>
<path d="M82.4064 35.904L62.6104 40.7774L65.7189 53.4045L85.515 48.5312L82.4064 35.904Z" fill="white"/>
<path d="M67.8068 40.9561C67.7373 40.9547 67.6695 40.9349 67.6101 40.8987C67.5265 40.846 67.4652 40.7643 67.4381 40.6693L66.4711 36.7361C66.2987 36.0387 66.2656 35.3142 66.3738 34.6041C66.4819 33.8939 66.7293 33.2121 67.1015 32.5977C67.4738 31.9833 67.9637 31.4485 68.5431 31.0239C69.1226 30.5993 69.7801 30.2933 70.4781 30.1234V30.1234C71.8852 29.7771 73.3723 30.0038 74.6124 30.7536C75.8524 31.5035 76.7439 32.7151 77.0908 34.1221L78.0577 38.0553C78.0802 38.1509 78.0645 38.2514 78.014 38.3356C77.9635 38.4197 77.8822 38.4809 77.7873 38.506L67.8969 40.9643L67.8068 40.9561ZM71.7892 30.7298C71.4084 30.7288 71.0288 30.7729 70.6584 30.8609V30.8609C70.0541 31.0095 69.4852 31.2759 68.9842 31.6449C68.4832 32.0139 68.0599 32.4781 67.7386 33.011C67.4174 33.5438 67.2045 34.1349 67.1121 34.7502C67.0198 35.3656 67.0498 35.9931 67.2004 36.5968L68.0772 40.1694L77.2465 37.9079L76.3697 34.3434C76.123 33.3141 75.537 32.3979 74.706 31.7423C73.8751 31.0867 72.8476 30.7301 71.7892 30.7298Z" fill="white"/>
<path d="M73.5754 44.6435C74.6525 44.6435 75.5257 43.7703 75.5257 42.6933C75.5257 41.6162 74.6525 40.743 73.5754 40.743C72.4984 40.743 71.6252 41.6162 71.6252 42.6933C71.6252 43.7703 72.4984 44.6435 73.5754 44.6435Z" fill="#68E1FD"/>
<path d="M74.1931 42.9197L73.1349 43.1803L74.222 47.5962L75.2802 47.3357L74.1931 42.9197Z" fill="#68E1FD"/>
<path d="M77.7298 60.8597H77.6315H77.484L77.2136 60.7942C70.8451 59.7392 64.9831 56.6689 60.4893 52.0346C58.3622 49.7787 56.6308 47.1802 55.3679 44.3485C54.644 42.7743 54.0945 41.1256 53.7291 39.432C53.6745 39.2299 53.6992 39.0147 53.7982 38.8303C53.8973 38.6459 54.0631 38.5065 54.2617 38.4405C54.5977 38.293 54.9582 38.1127 55.3925 37.8751C57.1268 37.013 58.4664 35.5211 59.1372 33.7042C59.6132 32.3639 59.6362 30.9045 59.2028 29.5498C59.1646 29.4517 59.1474 29.3466 59.1522 29.2415C59.1571 29.1363 59.1839 29.0333 59.231 28.9391C59.2781 28.8449 59.3444 28.7616 59.4256 28.6946C59.5069 28.6276 59.6012 28.5784 59.7026 28.5501L62.0708 27.4521C63.0786 27.0096 64.0947 26.5589 65.119 26.1328C67.2413 25.2017 69.4885 24.5861 71.789 24.3055C73.4279 24.1334 75.0667 24.0023 76.7056 23.8794L79.2785 23.6828C79.3701 23.6651 79.4643 23.6661 79.5556 23.6855C79.6468 23.705 79.7332 23.7426 79.8097 23.7961C79.8861 23.8496 79.951 23.9179 80.0005 23.997C80.05 24.076 80.0832 24.1642 80.0979 24.2564L80.1881 24.6005C80.2764 25.0038 80.3998 25.3986 80.5568 25.7805C80.9123 26.5972 81.4274 27.3347 82.0719 27.9497C82.7164 28.5646 83.4772 29.0445 84.3097 29.3613C85.635 29.8574 87.0551 30.0479 88.4642 29.9185C88.5932 29.894 88.7258 29.8959 88.854 29.9243C88.9822 29.9526 89.1032 30.0068 89.2098 30.0835C89.3164 30.1601 89.4062 30.2577 89.4738 30.3702C89.5415 30.4827 89.5855 30.6079 89.6032 30.7379C90.3249 33.3833 90.6019 36.1303 90.4226 38.8666C89.9965 46.3069 86.8663 52.7967 81.1222 58.2868C80.5077 58.8604 79.8603 59.4094 79.2294 59.9256L78.3526 60.6631C78.3047 60.704 78.2489 60.7347 78.1887 60.7532L77.7954 60.8433L77.7298 60.8597ZM60.0222 29.2548C60.4955 30.7753 60.4638 32.4081 59.9321 33.9091C59.199 35.9097 57.735 37.5581 55.835 38.5224C55.4472 38.7454 55.0478 38.9478 54.6386 39.1288C54.6039 39.1409 54.5708 39.1574 54.5403 39.1779C54.9143 40.827 55.4495 42.4354 56.1382 43.9797C57.3615 46.7292 59.0435 49.2507 61.112 51.4364C65.4856 55.9415 71.1901 58.923 77.3857 59.942C77.5004 59.942 77.6069 59.9911 77.7134 60.0157H77.7544H77.9511L78.7705 59.3274C79.3932 58.8112 80.0406 58.2704 80.6306 57.6886C86.219 52.3952 89.2672 46.0447 89.6442 38.842C89.8065 36.1953 89.5297 33.54 88.8247 30.9838C88.8137 30.9165 88.7886 30.8522 88.751 30.7953V30.7953C88.6753 30.7794 88.5972 30.7794 88.5216 30.7953C86.9895 30.9301 85.4468 30.7201 84.0066 30.1807C82.1351 29.4525 80.6292 28.0114 79.8193 26.1738C79.6456 25.7485 79.5058 25.3101 79.4014 24.8627L79.3195 24.5595L76.7465 24.7644C75.1569 24.8873 73.4689 25.0184 71.8956 25.1905C69.6715 25.4648 67.4992 26.061 65.4468 26.9604C64.4307 27.3865 63.4228 27.8208 62.4149 28.2633C61.6228 28.6129 60.828 28.9571 60.0304 29.2958L60.0222 29.2548Z" fill="white"/>
<path d="M31.8098 138.516C31.8098 138.516 38.2095 84.9834 44.478 79.1246C51.9347 72.1677 58.7277 67.4479 59.9732 71.422C61.2187 75.3962 62.3741 82.0253 52.1805 89.4492L53.6719 102.699C53.6719 102.699 63.7097 109.656 58.4819 131.518" fill="white"/>
<path d="M31.8098 138.893H31.7524C31.6537 138.881 31.5639 138.83 31.5025 138.751C31.4411 138.673 31.4131 138.574 31.4247 138.475C31.6869 136.287 37.9145 84.7458 44.2158 78.8623C51.4267 72.1349 56.3186 69.0293 58.7441 69.6931C59.1296 69.7993 59.4792 70.0076 59.7561 70.2961C60.0331 70.5845 60.227 70.9424 60.3173 71.3319C63.1443 80.3455 57.7116 85.8766 52.5739 89.6705L54.0242 102.544C55.2861 103.51 63.7753 110.918 58.8342 131.625C58.8236 131.673 58.8035 131.719 58.7749 131.759C58.7463 131.799 58.7099 131.833 58.6679 131.859C58.6258 131.885 58.579 131.903 58.5301 131.91C58.4813 131.918 58.4314 131.915 58.3835 131.903C58.2882 131.878 58.2062 131.817 58.1544 131.733C58.1026 131.65 58.0849 131.549 58.1049 131.453C63.2099 110.082 53.549 103.125 53.4506 103.06C53.4079 103.027 53.3722 102.987 53.3454 102.94C53.3187 102.894 53.3015 102.843 53.2949 102.789L51.8036 89.5394C51.7961 89.4741 51.8057 89.408 51.8316 89.3477C51.8575 89.2873 51.8986 89.2347 51.9511 89.1952C61.4481 82.2465 61.0302 76.0845 59.6045 71.5531C59.546 71.2884 59.418 71.044 59.2336 70.8453C59.0493 70.6465 58.8152 70.5005 58.5556 70.4223C56.4497 69.8651 51.5414 73.0609 44.732 79.4359C38.6274 85.1309 32.2359 138.057 32.1704 138.59C32.1551 138.674 32.1107 138.751 32.0448 138.806C31.979 138.862 31.8958 138.892 31.8098 138.893V138.893Z" fill="#231F20"/>
<path d="M0 174.292L24.5416 144.514L75.2389 166.876L60.3009 199.808L0 174.292Z" fill="#231F20"/>
<path d="M188.556 163.77C188.556 163.77 169.48 126.233 155.108 109.32C153.141 107.009 150.642 106.624 148.872 107.821C146.79 109.23 146.708 113.958 146.708 113.958C146.708 113.958 141.251 110.795 138.637 111.451C136.023 112.106 135.72 116.244 135.72 116.244C135.72 116.244 129.894 114.319 127.526 116.392C125.158 118.465 125.068 122.242 125.068 122.242C125.068 122.242 94.3477 97.5533 90.9635 95.4637C87.5793 93.3742 81.5075 97.1026 84.5065 101.462C86.3666 104.182 101.87 119.62 106.885 124.528C111.9 129.437 123.568 142.752 124.912 146.653C126.256 150.553 127.329 155.035 119.365 155.584C111.4 156.133 104.312 157.551 100.821 160.501C97.3304 163.451 95.036 167.917 96.7814 168.793C98.5268 169.67 126.682 166.45 137.375 170.809C148.069 175.168 161.958 191.114 161.958 191.114L188.556 163.77Z" fill="white"/>
<path d="M161.95 191.557C161.892 191.555 161.836 191.542 161.784 191.518C161.732 191.494 161.685 191.46 161.647 191.418C161.507 191.254 147.667 175.496 137.195 171.227C129.87 168.236 114.047 168.851 104.591 169.219C99.4692 169.416 97.2158 169.49 96.5766 169.219C96.3462 169.104 96.1496 168.931 96.006 168.717C95.8624 168.503 95.7767 168.256 95.7572 167.999C95.536 166.13 97.6746 162.656 100.518 160.255C103.706 157.567 110.023 155.888 119.307 155.248C122.134 155.052 123.994 154.331 124.822 153.093C125.895 151.455 125.248 149.136 124.494 146.858C123.232 143.088 111.826 129.986 106.598 124.873C101.37 119.759 86.0471 104.477 84.1952 101.708C83.5732 100.921 83.2613 99.9334 83.3187 98.9322C83.3761 97.9309 83.7988 96.9855 84.5066 96.275C86.0307 94.6853 89.0134 93.8167 91.2012 95.1278C94.3478 97.0534 120.274 117.867 124.715 121.439C124.894 119.411 125.792 117.513 127.247 116.088C129.402 114.22 133.917 115.269 135.442 115.712C135.614 114.523 136.261 111.614 138.605 111.049C140.948 110.484 144.898 112.475 146.397 113.278C146.512 111.877 146.954 108.673 148.708 107.485C150.773 106.083 153.493 106.714 155.485 109.058C169.726 125.807 188.794 163.205 188.991 163.582C189.028 163.659 189.04 163.746 189.027 163.831C189.014 163.916 188.975 163.995 188.917 164.057L162.31 191.434C162.263 191.479 162.206 191.514 162.144 191.535C162.081 191.557 162.015 191.564 161.95 191.557V191.557ZM117.267 168.081C124.896 168.081 132.836 168.564 137.49 170.465C147.421 174.513 159.844 188.164 161.966 190.541L188.056 163.697C186.327 160.329 168.349 125.528 154.788 109.615C153.092 107.616 150.806 107.042 149.101 108.189C147.544 109.255 147.143 112.737 147.118 113.999C147.117 114.069 147.098 114.138 147.062 114.198C147.026 114.259 146.975 114.309 146.913 114.343C146.851 114.379 146.781 114.398 146.709 114.398C146.637 114.398 146.566 114.379 146.504 114.343C146.446 114.343 141.161 111.27 138.736 111.885C136.441 112.458 136.138 116.277 136.13 116.31C136.125 116.371 136.107 116.431 136.076 116.485C136.045 116.539 136.002 116.584 135.951 116.619C135.9 116.654 135.841 116.676 135.78 116.685C135.719 116.694 135.656 116.689 135.597 116.67C135.54 116.67 129.96 114.851 127.764 116.744C125.568 118.637 125.445 122.25 125.445 122.291C125.442 122.368 125.418 122.441 125.376 122.505C125.334 122.568 125.276 122.619 125.207 122.652C125.139 122.685 125.062 122.698 124.987 122.689C124.911 122.68 124.84 122.65 124.781 122.603C124.47 122.357 94.0692 97.9056 90.7506 95.8652C88.9151 94.7426 86.3749 95.5211 85.0802 96.8813C84.5008 97.4541 84.1555 98.2221 84.1116 99.0356C84.0676 99.8491 84.3282 100.65 84.8426 101.282C86.6617 103.945 102.05 119.309 107.172 124.291C111.867 128.888 123.871 142.425 125.273 146.604C126.092 149.062 126.789 151.643 125.502 153.552C124.511 155.035 122.503 155.863 119.356 156.076C110.253 156.699 104.099 158.321 101.051 160.886C98.2073 163.287 96.4045 166.515 96.5684 167.908C96.5694 168.03 96.6035 168.149 96.667 168.253C96.7305 168.357 96.821 168.442 96.929 168.498C97.396 168.72 100.87 168.58 104.55 168.441C108.229 168.302 112.645 168.081 117.267 168.081V168.081Z" fill="#231F20"/>
<path d="M185.787 152.921L147.028 184.534L166.252 212.985L211 175.824L185.787 152.921Z" fill="#231F20"/>
<path d="M179.403 20.1757H129.706V56.8446H179.403V20.1757Z" fill="white"/>
<path d="M179.403 57.2543H129.706C129.597 57.2543 129.493 57.2111 129.416 57.1343C129.339 57.0575 129.296 56.9533 129.296 56.8446V20.1757C129.296 20.067 129.339 19.9628 129.416 19.8859C129.493 19.8091 129.597 19.7659 129.706 19.7659H179.403C179.512 19.7659 179.616 19.8091 179.693 19.8859C179.77 19.9628 179.813 20.067 179.813 20.1757V56.8446C179.813 56.9533 179.77 57.0575 179.693 57.1343C179.616 57.2111 179.512 57.2543 179.403 57.2543ZM130.115 56.4349H178.994V20.5854H130.083L130.115 56.4349Z" fill="#E6E7E8"/>
<path d="M171.586 31.8196C171.441 32.0494 171.279 32.2685 171.103 32.4751L153.936 49.6173C153.849 49.7562 153.728 49.8706 153.585 49.95C153.441 50.0293 153.28 50.0709 153.116 50.0709C152.953 50.0709 152.791 50.0293 152.648 49.95C152.505 49.8706 152.384 49.7562 152.297 49.6173L142.661 39.6368C142.539 39.5455 142.441 39.426 142.375 39.2885C142.309 39.1511 142.278 38.9997 142.283 38.8474C142.289 38.6952 142.332 38.5466 142.407 38.4143C142.483 38.2821 142.59 38.1701 142.718 38.0881L145.176 35.9085C145.262 35.7979 145.372 35.7084 145.498 35.6468C145.623 35.5852 145.761 35.5532 145.901 35.5532C146.041 35.5532 146.179 35.5852 146.305 35.6468C146.431 35.7084 146.541 35.7979 146.627 35.9085L152.363 41.7263C152.449 41.8652 152.57 41.9796 152.714 42.059C152.857 42.1383 153.018 42.1799 153.182 42.1799C153.346 42.1799 153.507 42.1383 153.65 42.059C153.794 41.9796 153.914 41.8652 154.001 41.7263L167.341 28.4518C167.429 28.3216 167.548 28.2151 167.686 28.1414C167.825 28.0677 167.979 28.0291 168.136 28.0291C168.293 28.0291 168.448 28.0677 168.586 28.1414C168.725 28.2151 168.843 28.3216 168.931 28.4518C169.685 29.2138 170.439 29.9677 171.185 30.7298C171.354 30.9324 171.51 31.1459 171.652 31.3689L171.586 31.8196Z" fill="#68E1FD"/>
<path d="M129.263 76.9695C129.161 76.9662 129.063 76.9264 128.988 76.8572C128.913 76.788 128.865 76.6941 128.853 76.5926C128.846 76.4856 128.881 76.38 128.949 76.2976C129.018 76.2153 129.116 76.1624 129.222 76.1501C133.442 75.7567 136.753 74.0524 139.055 71.0943C144.406 64.2275 142.71 52.7393 142.693 52.6246C142.685 52.5713 142.688 52.517 142.701 52.4646C142.713 52.4123 142.737 52.363 142.769 52.3196C142.801 52.2763 142.841 52.2396 142.887 52.2118C142.933 52.184 142.984 52.1655 143.038 52.1575C143.145 52.1433 143.253 52.1712 143.341 52.2353C143.428 52.2995 143.486 52.395 143.505 52.5017C143.578 52.9851 145.275 64.4488 139.703 71.5941C137.244 74.7407 133.745 76.5106 129.296 76.9695H129.263Z" fill="#E6E7E8"/>
<path d="M63.2017 177.717C63.1449 177.728 63.0865 177.728 63.0296 177.717L20.887 158.051C20.8321 158.033 20.7817 158.003 20.739 157.964C20.6964 157.925 20.6625 157.877 20.6396 157.824C20.6167 157.771 20.6053 157.714 20.6061 157.656C20.607 157.598 20.6201 157.541 20.6445 157.489C20.669 157.436 20.7042 157.39 20.748 157.352C20.7918 157.314 20.8431 157.286 20.8985 157.269C20.9539 157.253 21.0122 157.248 21.0695 157.256C21.1269 157.263 21.182 157.283 21.2312 157.313L63.3738 176.979C63.423 177.002 63.4672 177.035 63.5038 177.075C63.5403 177.115 63.5686 177.162 63.5869 177.213C63.6052 177.264 63.6131 177.318 63.6103 177.372C63.6075 177.426 63.594 177.479 63.5705 177.528C63.5319 177.59 63.4772 177.641 63.4123 177.674C63.3473 177.707 63.2745 177.722 63.2017 177.717Z" fill="white"/>
<path d="M155.181 189.697C155.118 189.696 155.055 189.681 154.998 189.653C154.942 189.624 154.892 189.583 154.853 189.533C154.788 189.446 154.76 189.337 154.776 189.229C154.791 189.122 154.848 189.024 154.935 188.959L188.31 163.475C188.396 163.409 188.505 163.38 188.612 163.394C188.72 163.408 188.817 163.463 188.884 163.549C188.95 163.635 188.979 163.744 188.965 163.851C188.952 163.959 188.896 164.056 188.81 164.123L155.427 189.656C155.352 189.696 155.265 189.71 155.181 189.697V189.697Z" fill="white"/>
</svg>
